<?xml version="1.0" encoding="utf-8"?>
<!-- Generator: Adobe Illustrator 21.1.0, SVG Export Plug-In . SVG Version: 6.00 Build 0)  -->
<svg version="1.1" id="Layer_1" xmlns="http://www.w3.org/2000/svg" xmlns:xlink="http://www.w3.org/1999/xlink" x="0px" y="0px"
	 viewBox="0 0 102 52" style="enable-background:new 0 0 102 52;" xml:space="preserve">
<style type="text/css">
	.st0{fill:#D8D8BD;}
	.st1{fill:#3B1C0B;}
	.st2{fill:#754C24;}
	.st3{fill:#FFF5D4;}
	.st4{fill:#E6E6E6;}
</style>
<g>
	<path class="st0" d="M99.7,44.4H64.2c3.9-1.6,7.7-4.2,10.8-8.2c1.1,1.3,2.4,2,3.9,2.1c0.1,0,0.2,0,0.2,0c4.3,0,8.7-5.5,14.3-14.2
		c4.2-6.5,2.7-12.9-0.9-15.9c-2.2-1.8-5.8-2.7-9.7-0.6c-0.2-3.1-0.7-5.1-0.7-5.3C81.9,1.5,81.2,1,80.5,1H51H21.5
		c-0.8,0-1.4,0.5-1.6,1.3c-0.1,0.5-3,12.3,2.6,26.1c3.6,8.7,9.3,13.5,15.3,16H2.3c-0.9,0-1.7,0.7-1.7,1.7c0,0.9,0.7,1.7,1.7,1.7
		h16.1c3.1,3.2,6.4,3.3,26.4,3.3c0.9,0,1.8,0,2.8,0l3.4,0l3.4,0c1,0,1.9,0,2.8,0c20,0,23.2-0.1,26.4-3.3h16.1c0.9,0,1.7-0.7,1.7-1.7
		C101.4,45.1,100.6,44.4,99.7,44.4z M90.4,10.7c2.4,2,3.3,6.7,0.2,11.5c-2.5,3.8-8.2,12.7-11.5,12.7c0,0-0.1,0-0.1,0
		c-0.7,0-1.4-0.6-2-1.6c0.9-1.5,1.7-3.1,2.5-4.9C82,22,82.8,16,82.9,11.4C85.6,9.3,88.4,9,90.4,10.7z M25.6,27.1
		c-4.2-10.3-3.3-19.5-2.7-22.8H51h28.1c0.5,3.3,1.4,12.5-2.7,22.8C70.9,40.6,59.5,43.5,51,43.5C42.5,43.5,31.1,40.6,25.6,27.1z"/>
	<path class="st1" d="M24.8,24.8c0.3,0.8,0.5,1.5,0.8,2.3C31.1,40.6,42.5,43.5,51,43.5c8.5,0,19.9-2.8,25.4-16.3
		c0.3-0.8,0.6-1.5,0.8-2.3H24.8z"/>
	<path class="st2" d="M76.4,27.1c1.8-4.5,2.7-8.8,3-12.4l-56.9-1.3c0.2,4,1.1,8.8,3.1,13.8C31.1,40.6,42.5,43.5,51,43.5
		C59.5,43.5,70.9,40.6,76.4,27.1z"/>
	<path class="st3" d="M22.9,16.7h56.3c0.4-2.6,0.5-4.9,0.4-6.9H22.4C22.4,11.8,22.5,14.1,22.9,16.7z"/>
	<g>
		<circle class="st4" cx="56.2" cy="27.5" r="3.8"/>
		<circle class="st4" cx="64.8" cy="29.6" r="1.2"/>
		<circle class="st4" cx="62.7" cy="21.5" r="2.2"/>
	</g>
</g>
</svg>
