<?xml version="1.0" encoding="utf-8"?>
<!-- Generator: Adobe Illustrator 21.1.0, SVG Export Plug-In . SVG Version: 6.00 Build 0)  -->
<svg version="1.1" id="Layer_1" xmlns="http://www.w3.org/2000/svg" xmlns:xlink="http://www.w3.org/1999/xlink" x="0px" y="0px"
	 viewBox="0 0 82 67" style="enable-background:new 0 0 82 67;" xml:space="preserve">
<style type="text/css">
	.st0{fill:none;stroke:#111111;stroke-width:2;stroke-linejoin:round;stroke-miterlimit:10;}
</style>
<g>
	<g>
		<g>
			<path class="st0" d="M39.8,0c0,0-0.7,4.9-6,9.3c-5.3,4.4-18.4,8.8-27.1,19.6C-2,39.7,2.3,50.3,4.5,53.5c1.3,1.8,3.2,2.3,4.7,2.3
				c-0.5-2.5-0.9-5.2-0.7-8.1C9.6,36.2,18.6,28.9,20,27.6c0.8-0.7,2.2-1.9,4-3.2c1.8-1.3,3.7-2.7,5.5-4.4c3.5-3.2,6.4-6.4,6.3-6.4
				c0,0-2.4,3.6-5.6,7.2c-1.5,1.8-3.5,3.6-5.1,5c-1.6,1.4-3,2.7-3.7,3.3c-0.7,0.7-3.1,2.7-5.4,6.1c-1.1,1.7-2.2,3.6-3.2,5.9
				c-1,2-1.5,4.3-1.5,6.7c0,4.1,1.1,8.1,2.2,11.3c1.5,0.8,4,1.1,7.8-0.4c3-1.7,5.7-3.6,7.9-5.7l-3.6-4.7l6.7,1.4
				c2.2-2.7,4-5.6,5.4-8.5l-6.5-2l8.2-2.1c1.4-4.2,2.2-8.4,2.6-12.5l-6.5,1.1l-0.1,0l0,0l-0.7,0.1l7.4-4.9C42.6,9.3,39.8,0,39.8,0z"
				/>
			<path class="st0" d="M6.8,28.9c7.8-9.7,19.2-14.3,25.3-18.3c-5.2,4.8-17.2,10.1-24.4,21.3C1.2,41.9,4.4,51.2,7,55.4
				c-0.9-0.3-1.8-0.9-2.5-1.9C2.3,50.3-2,39.7,6.8,28.9z"/>
		</g>
	</g>
	<g>
		<g>
			<path class="st0" d="M41.8,65.7c-2.6-1.2-3.6-2.6-4-3.8c1-2.1,2.5-4.6,4.6-6.6c1.2-1.1,2.6-2,4.1-2.5c1.7-0.6,3.1-1,4.5-1.2
				c2.8-0.5,5-0.3,5.7-0.2c0.7,0.1,2,0.1,3.5,0.3c1.5,0.2,3.4,0.3,5,0.2c3.4-0.1,6.4-0.6,6.4-0.6c0,0-3,0.1-6.4-0.1
				c-1.7-0.1-3.4-0.4-4.9-0.7c-1.5-0.3-2.8-0.5-3.6-0.5c-1.4-0.1-9.4-1.1-15.8,3.9c-1.5,1.3-2.8,2.8-3.8,4.3
				c-0.7-0.7-1.4-1.9-1.1-3.5c0.5-2.7,3.9-10,13.6-10.8c9.7-0.8,18.3,3.7,23.1,4.3c4.8,0.6,7.6-1.5,7.6-1.5S65.4,73.1,41.8,65.7z"/>
		</g>
	</g>
</g>
</svg>
