<?xml version="1.0" encoding="utf-8"?>
<!-- Generator: Adobe Illustrator 21.1.0, SVG Export Plug-In . SVG Version: 6.00 Build 0)  -->
<svg version="1.1" id="Layer_1" xmlns="http://www.w3.org/2000/svg" xmlns:xlink="http://www.w3.org/1999/xlink" x="0px" y="0px"
	 viewBox="0 0 82 67" style="enable-background:new 0 0 82 67;" xml:space="preserve">
<style type="text/css">
	.st0{fill:#111111;}
</style>
<g>
	<g>
		<path class="st0" d="M63.5,2c2.2,0,4.2,0.6,5.9,1.7c-2.2,0.7-4.4,1.5-6.4,3c-4.5,3.4-6.3,6.2-7.9,8.7c-1.5,2.3-2.7,4.3-6.2,6.8
			c-3.1,2.3-5.4,3.2-7.5,3.9L41,26.2c-0.7-2-0.8-4.2-0.2-6.5c1.1-4,4.1-8,8.7-11.7C54.4,4.1,59.2,2,63.5,2 M73.2,8.7
			c2,5.4-1.1,12.2-8.5,18.2c-4.9,3.9-9.7,6-14,6c-2.3,0-4.3-0.6-6-1.8c2.4-0.9,5-1.9,7.8-4c4.4-3.3,6.2-6.1,7.8-8.5
			c1.5-2.3,2.8-4.3,6.3-7c1.5-1.2,3.5-2,6-2.7L73.2,8.7 M63.5,0C59,0,53.7,2,48.2,6.5c-10.4,8.4-12.2,17.7-7.2,23.9
			c2.4,2.9,5.7,4.5,9.7,4.5c4.5,0,9.7-2,15.2-6.5c10.4-8.4,12.2-17.7,7.2-23.9C70.8,1.6,67.4,0,63.5,0L63.5,0z M43.2,29.5
			c-0.3-0.3-0.4-0.4-0.6-0.7c-0.4-0.4-0.2-0.3-0.5-0.8c2.6-0.8,5-1.9,8-4.2c3.7-2.8,5.2-5,6.7-7.3c1.6-2.5,3.2-5,7.4-8.2
			c1.9-1.5,4.4-2.3,6.7-2.9c0.3,0.3,0.1,0,0.4,0.3c0.3,0.4,0.6,0.8,0.8,1.2c-2.5,0.6-4.8,1.6-6.7,3c-3.8,2.9-5.3,5.2-6.8,7.5
			c-1.6,2.4-3.2,5-7.3,8C48.3,27.7,45.7,28.7,43.2,29.5L43.2,29.5z"/>
	</g>
	<g>
		<path class="st0" d="M18.6,18.6c-1,2.1-1.9,4.3-2.2,6.7c-0.6,5.6,0.3,8.8,1,11.7c0.7,2.6,1.3,4.9,0.8,9.1
			c-0.4,3.8-1.3,6.1-2.2,8.1l-0.2,0.5c-1.9-0.8-3.6-2.3-4.9-4.3C8.8,46.9,7.9,42,8.3,36.1C9,26.4,12.9,19.9,18.6,18.6 M24.9,19.1
			c5.3,2.3,8.2,9.2,7.5,18.6c-0.7,9.8-4.7,16.3-10.6,17.5c1-2.4,2-5,2.4-8.5c0.6-5.5-0.2-8.7-0.9-11.5c-0.7-2.7-1.3-5-0.8-9.4
			c0.2-1.9,0.9-4,2.1-6.2L24.9,19.1 M20.9,16.4c-7.6,0-13.7,6.8-14.6,19.6c-0.9,13.3,4.7,21,12.6,21.5c0.3,0,0.6,0,0.9,0
			c7.6,0,13.7-6.8,14.6-19.6c0.9-13.3-4.7-21-12.6-21.5C21.5,16.4,21.2,16.4,20.9,16.4L20.9,16.4z M19.3,55.3c-0.2,0-0.3,0-0.5,0
			c-0.6,0-0.4-0.1-0.9-0.2c1.1-2.4,2-5,2.4-8.7c0.5-4.6-0.1-7.2-0.8-9.9c-0.7-2.8-1.5-5.8-1-11c0.2-2.4,1.3-4.7,2.4-6.9
			c0.3,0,0.2,0,0.3,0c0,0,0.1,0,0.2,0c0.6,0,0.9,0.1,1.5,0.2c-1.2,2.3-2.1,4.6-2.4,6.9c-0.5,4.8,0.2,7.4,0.9,10.1
			c0.7,2.8,1.5,5.7,0.9,10.8c-0.4,3.7-1.5,6.4-2.6,8.7C19.5,55.3,19.4,55.3,19.3,55.3L19.3,55.3z"/>
	</g>
	<g>
		<path class="st0" d="M47.6,49.2c3.8,0,6.6,1.1,8.3,3c-0.7-0.1-1.5-0.2-2.3-0.2c-0.4,0-0.9,0-1.3,0.1c-3.9,0.5-6,1.6-7.9,2.5
			c-1.6,0.8-3,1.5-5.8,1.9c-0.8,0.1-1.5,0.1-2.2,0.1c-1,0-2-0.1-3.1-0.3c0.3-1.1,0.9-2.1,1.8-3c1.9-1.9,5-3.2,8.9-3.8
			C45.3,49.3,46.5,49.2,47.6,49.2 M54,57.4c0.9,0,2,0.2,3.1,0.5c-0.3,1.1-0.9,2.1-1.8,3c-1.9,1.9-5,3.2-8.9,3.8
			c-1.3,0.2-2.5,0.3-3.6,0.3c-3.9,0-6.8-1.2-8.4-3.2c0.8,0.1,1.7,0.2,2.7,0.2c0.7,0,1.5,0,2.2-0.1c3.9-0.4,6-1.5,7.8-2.5
			c1.6-0.8,3-1.6,6-1.9C53.3,57.4,53.6,57.4,54,57.4 M47.6,47.2c-1.2,0-2.5,0.1-3.9,0.3c-9,1.4-13.3,6.4-12.5,11.8
			C31.9,63.9,36,67,42.8,67c1.2,0,2.5-0.1,3.9-0.3c9-1.4,13.3-6.4,12.5-11.8C58.5,50.3,54.4,47.2,47.6,47.2L47.6,47.2z M36.5,58.6
			c0.7,0,1.5,0,2.4-0.1c3.2-0.4,4.8-1.2,6.5-2.1c1.8-0.9,3.6-1.9,7.2-2.3c0.3,0,0.7-0.1,1-0.1c1.3,0,2.7,0.3,4,0.6
			c0.1,0.3,0.1,0,0.1,0.3c0.1,0.4,0.1,0.7,0.1,1c-1.3-0.4-2.5-0.6-3.8-0.6c-0.4,0-0.8,0-1.2,0.1c-3.3,0.4-4.9,1.3-6.6,2.2
			c-1.8,0.9-3.6,1.9-7.1,2.3c-0.7,0.1-1.4,0.1-2,0.1c-1.6,0-3-0.2-4.3-0.5c-0.1-0.2-0.1-0.4-0.1-0.6c-0.1-0.4,0-0.3,0-0.7
			C33.8,58.4,35,58.6,36.5,58.6L36.5,58.6z"/>
	</g>
</g>
</svg>
