<?xml version="1.0" encoding="utf-8"?>
<!-- Generator: Adobe Illustrator 21.1.0, SVG Export Plug-In . SVG Version: 6.00 Build 0)  -->
<svg version="1.1" id="Layer_1" xmlns="http://www.w3.org/2000/svg" xmlns:xlink="http://www.w3.org/1999/xlink" x="0px" y="0px"
	 viewBox="0 0 82 67" style="enable-background:new 0 0 82 67;" xml:space="preserve">
<style type="text/css">
	.st0{fill:#111111;}
</style>
<g>
	<g>
		<g>
			<g>
				<path class="st0" d="M45.6,31.8c0.2,0.4,0.6,0.6,1,0.6c0.2,0,0.3,0,0.5-0.1c0.1,0,6.6-3.4,9.9-4.4c0.6-0.2,0.9-0.8,0.7-1.4
					c-0.2-0.6-0.8-0.9-1.4-0.7c-3.4,1.1-9.9,4.4-10.2,4.5C45.5,30.6,45.3,31.2,45.6,31.8z"/>
			</g>
			<g>
				<path class="st0" d="M46.6,19c0.2,0,0.3,0,0.5-0.1c0.1,0,6.6-3.4,9.9-4.4c0.6-0.2,0.9-0.8,0.7-1.4c-0.2-0.6-0.8-0.9-1.4-0.7
					c-3.4,1.1-9.9,4.4-10.2,4.5c-0.5,0.3-0.8,1-0.5,1.5C45.8,18.8,46.2,19,46.6,19z"/>
			</g>
			<g>
				<path class="st0" d="M73.4,16.8c-0.6,0-1.1,0.5-1.1,1.1v43.5c0,1.8-1.5,3.3-3.3,3.3H42.1v-2.6c1.6-0.6,5.9-1.9,10-1.9
					c9.7,0,16.3,2.2,16.4,2.2c0.3,0.1,0.7,0.1,1-0.2c0.3-0.2,0.5-0.5,0.5-0.9V12.3c0-0.5-0.4-1-0.9-1.1c0,0-0.9-0.2-2.4-0.5
					c-0.6-0.1-1.2,0.3-1.3,0.9c-0.1,0.6,0.3,1.2,0.9,1.3c0.6,0.1,1,0.2,1.4,0.3v46.7c-2.5-0.7-8.1-1.9-15.6-1.9
					c-4.9,0-9.6,1.6-11.1,2.1c-1.3-0.6-5.3-2.1-10.1-2.1c-7.7,0-14,1.3-16.7,1.9V13.1c2.2-0.5,8.8-2,16.7-2c4.1,0,7.6,1.3,8.9,1.8
					v43.9c0,0.4,0.2,0.8,0.6,1c0.3,0.2,0.8,0.2,1.1,0c0.1-0.1,11.2-6.7,21-9.9c0.5-0.2,0.8-0.6,0.8-1.1V1.1c0-0.4-0.2-0.7-0.5-0.9
					c-0.3-0.2-0.7-0.3-1-0.1c-8.9,3.4-18,9-18.1,9c-0.5,0.3-0.7,1-0.4,1.5c0.3,0.5,1,0.7,1.5,0.4c0.1-0.1,7.9-4.9,16.2-8.2v43.4
					c-7.6,2.6-15.6,7-19,8.9V12.3c0-0.4-0.2-0.8-0.6-1c-0.2-0.1-4.8-2.4-10.5-2.4c-10.1,0-17.8,2.2-18.2,2.3
					c-0.5,0.1-0.8,0.6-0.8,1.1v49.1c0,0.3,0.2,0.7,0.4,0.9c0.2,0.1,0.4,0.2,0.7,0.2c0.1,0,0.2,0,0.3,0c0.1,0,7.8-2.2,17.6-2.2
					c4.1,0,7.6,1.3,8.9,1.8v2.6H13.1c-1.8,0-3.3-1.5-3.3-3.3V17.9c0-0.6-0.5-1.1-1.1-1.1s-1.1,0.5-1.1,1.1v43.5
					c0,3.1,2.5,5.6,5.6,5.6h55.8c3.1,0,5.6-2.5,5.6-5.6V17.9C74.5,17.3,74,16.8,73.4,16.8z"/>
			</g>
			<g>
				<path class="st0" d="M45.6,25.1c0.2,0.4,0.6,0.6,1,0.6c0.2,0,0.3,0,0.5-0.1c0.1,0,6.6-3.4,9.9-4.4c0.6-0.2,0.9-0.8,0.7-1.4
					c-0.2-0.6-0.8-0.9-1.4-0.7c-3.4,1.1-9.9,4.4-10.2,4.5C45.5,23.9,45.3,24.5,45.6,25.1z"/>
			</g>
			<g>
				<path class="st0" d="M45.6,38.5c0.2,0.4,0.6,0.6,1,0.6c0.2,0,0.3,0,0.5-0.1c0.1,0,6.6-3.4,9.9-4.4c0.6-0.2,0.9-0.8,0.7-1.4
					c-0.2-0.6-0.8-0.9-1.4-0.7c-3.4,1.1-9.9,4.4-10.2,4.5C45.5,37.3,45.3,37.9,45.6,38.5z"/>
			</g>
			<g>
				<path class="st0" d="M34.6,20.7c-6.9-1.6-14.7,0.4-15.1,0.5c-0.6,0.2-0.9,0.8-0.8,1.4c0.1,0.5,0.6,0.8,1.1,0.8
					c0.1,0,0.2,0,0.3,0c0.1,0,7.6-2,14-0.5c0.6,0.1,1.2-0.2,1.3-0.8C35.5,21.5,35.2,20.9,34.6,20.7z"/>
			</g>
			<g>
				<path class="st0" d="M34.6,27.4c-6.9-1.6-14.7,0.4-15.1,0.5c-0.6,0.2-0.9,0.8-0.8,1.4c0.1,0.5,0.6,0.8,1.1,0.8
					c0.1,0,0.2,0,0.3,0c0.1,0,7.6-2,14-0.5c0.6,0.1,1.2-0.2,1.3-0.8C35.5,28.2,35.2,27.6,34.6,27.4z"/>
			</g>
			<g>
				<path class="st0" d="M45.6,45.2c0.2,0.4,0.6,0.6,1,0.6c0.2,0,0.3,0,0.5-0.1c0.1,0,6.6-3.4,9.9-4.4c0.6-0.2,0.9-0.8,0.7-1.4
					c-0.2-0.6-0.8-0.9-1.4-0.7c-3.4,1.1-9.9,4.4-10.2,4.5C45.5,44,45.3,44.6,45.6,45.2z"/>
			</g>
			<g>
				<path class="st0" d="M34.6,34.1c-6.9-1.6-14.7,0.4-15.1,0.5c-0.6,0.2-0.9,0.8-0.8,1.4c0.1,0.5,0.6,0.8,1.1,0.8
					c0.1,0,0.2,0,0.3,0c0.1,0,7.6-2,14-0.5c0.6,0.1,1.2-0.2,1.3-0.8C35.5,34.9,35.2,34.3,34.6,34.1z"/>
			</g>
			<g>
				<path class="st0" d="M34.6,47.5c-6.9-1.6-14.7,0.4-15.1,0.5c-0.6,0.2-0.9,0.8-0.8,1.4c0.1,0.5,0.6,0.8,1.1,0.8
					c0.1,0,0.2,0,0.3,0c0.1,0,7.6-2,14-0.5c0.6,0.1,1.2-0.2,1.3-0.8C35.5,48.3,35.2,47.7,34.6,47.5z"/>
			</g>
			<g>
				<path class="st0" d="M34.6,40.8c-6.9-1.6-14.7,0.4-15.1,0.5c-0.6,0.2-0.9,0.8-0.8,1.4c0.1,0.5,0.6,0.8,1.1,0.8
					c0.1,0,0.2,0,0.3,0c0.1,0,7.6-2,14-0.5c0.6,0.1,1.2-0.2,1.3-0.8C35.5,41.6,35.2,41,34.6,40.8z"/>
			</g>
		</g>
	</g>
</g>
</svg>
