<?xml version="1.0" encoding="utf-8"?>
<!-- Generator: Adobe Illustrator 21.1.0, SVG Export Plug-In . SVG Version: 6.00 Build 0)  -->
<svg version="1.1" id="Layer_1" xmlns="http://www.w3.org/2000/svg" xmlns:xlink="http://www.w3.org/1999/xlink" x="0px" y="0px"
	 viewBox="0 0 140 140" style="enable-background:new 0 0 140 140;" xml:space="preserve">
<style type="text/css">
	.st0{fill:#8C6239;}
	.st1{clip-path:url(#SVGID_2_);}
	.st2{fill:#111111;}
	.st3{fill:#CC9E75;}
	.st4{fill:#DCB197;}
	.st5{fill:#B1B0B1;}
	.st6{fill:#FFE4B8;}
	.st7{fill:#FEE6D5;}
	.st8{fill:#C4E9FB;}
	.st9{fill:#FFFFFF;}
	.st10{fill:#EB685A;}
	.st11{fill:#EC7978;}
	.st12{fill:#B7957F;}
	.st13{fill:#E097AE;}
</style>
<g>
	<circle class="st0" cx="70" cy="70" r="70"/>
	<g>
		<defs>
			<circle id="SVGID_1_" cx="70" cy="70" r="70"/>
		</defs>
		<clipPath id="SVGID_2_">
			<use xlink:href="#SVGID_1_"  style="overflow:visible;"/>
		</clipPath>
		<g class="st1">
			<g>
				<g>
					<path class="st2" d="M79.1,95.4c-0.7-0.2-1.3-0.2-1.3-0.2l0,0l-3.7-1l-1.5-0.4l0,0l-2-0.6l0,0l0,0l-3.3-1.4l-0.5-3.1
						C78.6,85.7,85,75,85.1,67.9c0-0.2,0-0.3,0-0.5c2.6-0.5,4.4-3.4,4.1-6.8c-0.2-2.3-1.3-4.2-2.8-5.2c-0.1-7.1-0.4-17.3-2-20.3
						c-2.5-4.7-5.2-7.8-7.1-8.8c-3-1.5-4.7-1.5-5.5-1.3c-0.5-1.1-2.5-4.2-9.5-4c-8.5,0.3-18,3.9-19.8,3.3l2.7,2.2
						c0,0-4.2-0.1-7.1,2.6l0.1,1.5c0,0-4.1,3.8-5.7,8.9C31.6,42.9,33,53,34.2,60c-1.3,1.3-2,3.3-1.8,5.6c0.3,3.4,2.6,6,5.2,6
						c0,0.2,0.1,0.3,0.1,0.5C39,79,47.1,88.5,59.2,89.2l-0.4,2.5l-3.3,1.4l0,0l0,0l-2,0.6l0,0L52,94.1l-3.7,1l0,0
						c-0.2,0-6.5,1-7.1,3.8c-1.9,3.9-9.5,19.5-9.1,21.9c0.7,5.2,8.9,15.7,8.9,15.7l0.7-0.4c0.3,0.4,0.6,0.7,0.8,1
						c-0.9,1.9-1.6,5.8-1.4,6.8c0.2,2.1,1,4.6,1,4.6s2.2,3.3,3.1,3.2c0.3-0.1,0.5-0.2,0.7-0.4c0,0.6-0.1,1.1-0.1,1.7
						c-1,21.6-1.3,30.8-1.3,30.8h4l2.1,35.4l-0.8,4.6h0.6L49,225l-2.4,1.5l-0.3,3.1h14.2l-1-6h0.7l1.7-40h1.1h4.3L74,225l-0.8,4.6
						h17.6c0,0,0-2.5-0.3-3c-0.1-0.2-2.5-1.6-2.5-1.6l-3.5-2.2l0.3-0.1l-1.4-3.4l-2.2-35.8h0.3c0,0-0.3-9.1-1.3-30.8
						c0-0.6-0.1-1.2-0.1-1.8h0l0,0c-0.5-7.3-1.8-16.3-1.8-16.3l0.1-3.5h0v0h0l0.2-8.8l0.4-12.1c2.5,6.6,7.3,17.9,9.9,17.9
						c4.2,0.1,13.7-17.7,13.7-17.7l-1-0.6c0.4-0.8,0.7-1.4,0.9-1.9c1.9-1.2,7.8-4.9,8.4-5.8c0.4-0.5,1.5-2.3,1.8-5.8
						c0.3-3.5-0.4-5.1-1.9-7.6c-0.6-1.2-2.4-4.3-4.8-4.2c-0.8,0-1.8,0.4-2.9,1c-0.1-0.4-0.4-0.8-0.8-1c-0.6-0.3-1.2-0.2-1.7,0.1
						c-0.1-2.7-5.2-4.8-11.6-4.8c-6.4,0-11.6,2.2-11.6,4.9c0,0.2,0,0.4,0.1,0.6L79.1,95.4z M88.3,109c0.3,0,0.6,0,0.9,0
						c2.1,0,3.9-0.2,5.4-0.5c-1,1.4-2.6,3.6-4.4,6.3C89.8,113.5,89.1,111.3,88.3,109z M46.3,144.5c0-0.4,0.2-0.7,0.3-1
						c-0.1,0.6-0.1,1.3-0.2,2C46.3,145.1,46.3,144.8,46.3,144.5z M47.6,131.2l0.1,3.5c0,0-0.1,0.4-0.1,1.1c-0.7-0.9-1.3-1.6-1.3-1.6
						l-0.1,0.1c-0.1-0.3-0.3-0.6-0.4-0.9l0.9-0.6c0,0-5.8-11.9-6-12.4c-0.1-0.7,3.8-8,6.2-12.2l0.4,14.3L47.6,131.2L47.6,131.2
						L47.6,131.2L47.6,131.2z"/>
				</g>
				<g>
					<path class="st2" d="M45.3,230.4c-0.2-0.3-0.4-0.6-0.3-1l0.3-3.1c0-0.4,0.3-0.7,0.6-1l2.3-1.4l0.5-0.4c0-0.1,0-0.1,0-0.2
						l0.7-4.4l-2.1-34.1h-2.8c-0.3,0-0.7-0.1-0.9-0.4c-0.2-0.2-0.4-0.6-0.4-0.9c0-0.1,0.3-9.4,1.3-30.8c-0.7-0.3-1.8-1.1-3.6-3.7
						c-0.1-0.1-0.1-0.2-0.2-0.3c0-0.1-0.8-2.6-1.1-4.8c-0.2-1.2,0.4-4.1,1.1-6.2c-0.3,0-0.6-0.2-0.8-0.5c-0.3-0.4-8.4-10.8-9.2-16.3
						c-0.1-0.6-0.3-1.9,3.8-11.1c2.1-4.6,4.4-9.4,5.4-11.4c0.9-3.4,7.1-4.4,8-4.6l3.6-1l1.5-0.4c0,0,0.1,0,0.1,0l1.8-0.5l2.6-1.1
						l0.1-0.5c-11.1-1.3-19.5-9.9-21.3-17.6c-2.8-0.6-5.1-3.4-5.4-7c-0.2-2.3,0.4-4.5,1.7-6.1C31,48.8,30.5,42,31.4,39.3
						c1.4-4.4,4.4-7.8,5.6-9l-0.1-0.9c0-0.4,0.1-0.8,0.4-1c1.5-1.4,3.4-2.2,4.9-2.6l-0.4-0.4c-0.5-0.4-0.6-1.1-0.3-1.6
						c0.3-0.5,0.9-0.8,1.5-0.6c0.6,0.1,3-0.5,5.1-1c3.9-0.9,9.2-2.2,14.3-2.4c6.4-0.2,9.1,2.2,10.2,3.8c1.4-0.1,3.2,0.5,5.4,1.5
						c2.3,1.2,5.2,4.6,7.7,9.3c1.3,2.5,2,9.3,2.2,20.3c1.5,1.3,2.6,3.4,2.8,5.7c0.3,3.6-1.4,6.8-4.1,7.9c-0.2,3.6-1.7,7.6-4.3,11.2
						c2.2-0.7,4.7-1,7.2-1c5.3,0,11,1.6,12.5,4.6c0.4,0,0.9,0.1,1.3,0.3c0.2,0.1,0.5,0.3,0.8,0.5c0.8-0.3,1.6-0.6,2.4-0.6
						c0,0,0.1,0,0.1,0c2.9,0,4.8,3,5.8,4.9c1.7,2.8,2.4,4.6,2.1,8.3c-0.3,3.5-1.4,5.6-2,6.5c-0.5,0.8-2.6,2.1-6.9,4.9
						c-0.6,0.4-1.1,0.7-1.5,1c-0.1,0.2-0.2,0.3-0.3,0.5c0.6,0.4,0.7,1.1,0.4,1.7c0,0-2.5,4.5-5.4,9c-5.4,8.2-7.9,9.4-9.4,9.4
						c0,0,0,0-0.1,0c-1,0-3.2-0.1-8.7-13.1l-0.4,14.9c0,0,0,0,0,0l-0.1,3.4c0.1,1.1,1.3,9.5,1.7,16.3c0,0.6,0.1,1.2,0.1,1.8
						c1,21.4,1.3,30.7,1.3,30.8c0,0.3-0.1,0.6-0.3,0.8l2.1,34.7l1.3,3.2l2.7,1.7c2.6,1.5,2.7,1.8,2.9,2c0.2,0.2,0.5,0.8,0.5,3.7
						c0,0.7-0.6,1.3-1.3,1.3H73.2c-0.4,0-0.7-0.2-1-0.5c-0.2-0.3-0.3-0.7-0.3-1l0.8-4.4l-6.5-40.1h-3.1l-1.7,38.8
						c0,0.4-0.2,0.8-0.5,1l0.8,4.8c0.1,0.4,0,0.7-0.3,1c-0.2,0.3-0.6,0.4-1,0.4H46.2C45.9,230.9,45.5,230.7,45.3,230.4z M58.2,223.8
						c-0.1-0.4,0-0.7,0.3-1c0.1-0.2,0.3-0.3,0.5-0.4l1.7-38.9c0-0.7,0.6-1.2,1.3-1.2h5.4c0.6,0,1.2,0.5,1.3,1.1l6.7,41.4
						c0,0.1,0,0.3,0,0.4l-0.5,3.1h14.8c0-0.4,0-0.7-0.1-1c-0.4-0.3-1.3-0.8-2.1-1.3l-3.5-2.2c-0.4-0.3-0.7-0.8-0.6-1.3
						c0-0.1,0-0.1,0-0.2l-1-2.6c-0.1-0.1-0.1-0.3-0.1-0.4L80,183.7c0-0.3,0.1-0.7,0.3-0.9c-0.1-2.7-0.4-12.2-1.2-29.9
						c0-0.6-0.1-1.2-0.1-1.7c0,0,0,0,0,0c-0.5-7.1-1.7-16.1-1.7-16.2c0-0.1,0-0.1,0-0.2l0.1-3.4c0,0,0-0.1,0-0.1c0-0.1,0-0.1,0-0.2
						l0.2-8.7l0.4-12.1c0-0.6,0.5-1.1,1.1-1.2c0.6-0.1,1.2,0.2,1.4,0.8c5,12.8,7.8,16.7,8.7,17.1c0.3,0,2.3-0.6,7.3-8.2
						c2-3.1,3.8-6.2,4.7-7.7c-0.5-0.4-0.7-1-0.4-1.6c0.4-0.8,0.7-1.4,0.9-1.8c0.1-0.2,0.3-0.4,0.4-0.5c0.4-0.3,1.1-0.7,1.9-1.2
						c1.8-1.2,5.7-3.6,6.2-4.3c0.4-0.6,1.3-2.2,1.5-5.2c0.3-3.2-0.3-4.5-1.8-6.9c0,0,0-0.1,0-0.1c-0.8-1.6-2.2-3.5-3.5-3.5
						c0,0,0,0,0,0c-0.5,0-1.4,0.3-2.4,0.9c-0.3,0.2-0.7,0.2-1.1,0.1c-0.3-0.1-0.6-0.4-0.7-0.8c0-0.1-0.1-0.2-0.1-0.2
						c-0.1,0-0.3-0.1-0.5,0.1c-0.4,0.2-0.9,0.2-1.3,0c-0.4-0.2-0.6-0.6-0.7-1.1c0-1.5-4.1-3.6-10.3-3.6c-6.3,0-10.3,2.1-10.3,3.6
						c0,0.1,0,0.1,0,0.2c0,0.1,0,0.1,0,0.2l1.4,10c0.1,0.4-0.1,0.8-0.4,1.1c-0.3,0.3-0.7,0.4-1.1,0.3c-0.7-0.2-1.2-0.2-1.2-0.2h0
						c-0.1,0-0.2,0-0.3-0.1l-3.6-1l-1.4-0.4c0,0-0.1,0-0.1,0l-2-0.6c-0.1,0-0.1,0-0.1-0.1l-3.3-1.4c-0.4-0.2-0.7-0.5-0.8-1l-0.5-3.1
						c-0.1-0.6,0.3-1.3,1-1.4c11.6-2.8,17.2-13.3,17.4-19.4l0-0.5c0-0.6,0.5-1.1,1-1.2c1.9-0.4,3.3-2.7,3-5.4
						c-0.2-1.8-1-3.4-2.2-4.3c-0.3-0.2-0.5-0.6-0.5-1c-0.1-10.5-0.8-17.6-1.9-19.7c-2.5-4.7-5.1-7.5-6.6-8.2
						c-2.9-1.5-4.2-1.3-4.6-1.2c-0.6,0.2-1.3-0.1-1.5-0.7c-0.3-0.8-2-3.4-8.3-3.2c-4.8,0.1-9.9,1.4-13.7,2.3
						c-1.2,0.3-2.1,0.5-2.9,0.7l0.4,0.3c0.4,0.3,0.6,0.9,0.4,1.4c-0.2,0.5-0.7,0.8-1.2,0.8c0,0-3.3-0.1-5.7,1.9l0.1,0.8
						c0,0.4-0.1,0.8-0.4,1c0,0-3.8,3.7-5.4,8.4c-0.7,2.2-0.1,9.4,1.6,19.7c0.1,0.4-0.1,0.8-0.4,1.1c-1.1,1.1-1.6,2.8-1.4,4.6
						c0.2,2.7,2,4.8,3.9,4.8c0.6,0,1.1,0.4,1.2,1l0.1,0.5c1.2,6.1,8.5,15.4,20.4,16.1c0.4,0,0.7,0.2,0.9,0.5c0.2,0.3,0.3,0.6,0.3,1
						l-0.4,2.5c-0.1,0.4-0.4,0.8-0.8,1l-3.3,1.4c0,0-0.1,0-0.1,0l-2.1,0.6c0,0-0.1,0-0.1,0l-5.1,1.4v0c-0.1,0-0.1,0-0.2,0
						c-2,0.3-5.7,1.4-6,2.8c0,0.1-0.1,0.2-0.1,0.3c-5.4,11-9.1,19.7-9,21.2c0.5,3.6,5.4,10.8,8,14.2c0.5-0.1,1,0,1.4,0.4
						c0.3,0.4,0.6,0.7,0.8,1c0.3,0.4,0.4,0.9,0.2,1.3c-0.8,1.9-1.5,5.3-1.4,6c0,0,0,0.1,0,0.1c0.2,1.6,0.7,3.6,0.9,4.1
						c0.7,1,1.4,1.9,1.9,2.3c0.4-0.3,0.9-0.4,1.3-0.2c0.5,0.2,0.8,0.7,0.8,1.3c0,0.6-0.1,1.1-0.1,1.6c-0.8,16.9-1.1,26.2-1.2,29.5
						h2.7c0.7,0,1.2,0.5,1.3,1.2L52,219c0,0.1,0,0.2,0,0.3l-0.6,3.4c0.1,0.1,0.3,0.3,0.3,0.5c0.2,0.5,0.1,1-0.3,1.4l-1.6,1.4
						c-0.1,0.1-0.1,0.1-0.2,0.1l-1.9,1.2l-0.1,1.1H59L58.2,223.8z M44.9,150.3L44.9,150.3L44.9,150.3z M76.4,85.4
						c-2.4,1.8-5.1,3.2-8.2,4.1l0.2,1.3l2.6,1.1l1.8,0.5c0,0,0.1,0,0.1,0l4.6,1.3l-1.2-8.2C76.4,85.6,76.4,85.5,76.4,85.4z M43,23.3
						C43,23.3,43,23.3,43,23.3C43,23.3,43,23.3,43,23.3z M45.1,145.7c0-0.4-0.1-0.8-0.1-1c0-0.1,0-0.1,0-0.2c0-0.5,0.2-1,0.4-1.5
						c0.3-0.6,0.9-0.8,1.5-0.7c0.6,0.2,1,0.7,0.9,1.4c-0.1,0.6-0.1,1.3-0.2,2c-0.1,0.6-0.6,1.1-1.3,1.1c0,0,0,0,0,0
						C45.7,146.8,45.2,146.3,45.1,145.7z M46.5,136.5c-0.3-0.4-0.7-0.8-0.9-1.1c-0.3-0.1-0.5-0.4-0.7-0.7l-0.4-0.9
						c-0.2-0.6-0.1-1.2,0.5-1.6l0,0c-5.4-11-5.5-11.5-5.6-11.7c-0.1-0.6-0.3-1.2,6.3-13.1c0.3-0.5,0.9-0.8,1.4-0.6
						c0.6,0.1,1,0.6,1,1.2l0.4,14.3l0.2,8.7c0,0.1,0,0.1,0,0.2c0,0,0,0.1,0,0.1l0.1,3.4c0,0.1,0,0.1,0,0.2c0,0-0.1,0.4-0.1,1.1
						c-0.1,0.5-0.4,0.9-0.9,1.1c-0.1,0-0.2,0-0.3,0C47.1,137.1,46.8,136.9,46.5,136.5z M42,120.2c0.5,1.1,2.4,5.1,4.2,8.7l-0.2-6.5
						l-0.3-9.6C43,117.9,42.2,119.6,42,120.2z M42,120.4L42,120.4L42,120.4z M90,116.1c-0.5-0.1-0.9-0.4-1-0.9
						c-0.4-1.2-1-3.1-1.8-5.7c-0.1-0.4-0.1-0.8,0.2-1.2c0.2-0.3,0.6-0.5,1.1-0.5c0.3,0,0.6,0,0.8,0c2,0,3.7-0.2,5.1-0.5
						c0.5-0.1,1.1,0.1,1.3,0.5c0.3,0.4,0.3,1,0,1.4c-1,1.3-2.5,3.5-4.4,6.2c-0.2,0.4-0.6,0.6-1.1,0.6
						C90.1,116.1,90.1,116.1,90,116.1z M90.1,110.3c0.2,0.6,0.4,1.1,0.5,1.6c0.4-0.6,0.8-1.2,1.2-1.7
						C91.3,110.3,90.7,110.3,90.1,110.3z"/>
				</g>
			</g>
			<g>
				<g>
					<path class="st3" d="M57.4,24.1C85.6,21.6,84.6,41,84.6,41l2,23.3l-24,4.6L60,69.1l-24.4-0.4l-2.1-23.3
						C33.5,45.5,29.1,26.6,57.4,24.1z"/>
					<path class="st2" d="M60,69.7l-24.4-0.4c-0.3,0-0.6-0.3-0.6-0.6l-2.1-23.2c-0.1-0.6-1.3-6.8,2.9-12.6
						c3.9-5.4,11.2-8.6,21.6-9.5h0c10.4-0.9,18.1,1,22.9,5.6c5.1,5,5,11.2,5,11.9l2,23.2c0,0.3-0.2,0.6-0.5,0.7l-24,4.6
						c0,0,0,0-0.1,0L60,69.7C60,69.7,60,69.7,60,69.7C60,69.7,60,69.7,60,69.7z M85.9,63.7L84,41c0,0,0-0.1,0-0.1
						c0-0.1,0.2-6.2-4.6-11c-4.5-4.4-11.9-6.1-21.9-5.3c-10,0.9-16.9,3.9-20.7,9c-4,5.5-2.7,11.5-2.7,11.6c0,0,0,0.1,0,0.1l2,22.7
						L60,68.4l2.5-0.2L85.9,63.7z"/>
				</g>
				<g>
					<path class="st2" d="M35.4,67.2L35.4,67.2c0,0-4.5-22.4-2.8-27.5c1.6-5.1,5.7-8.9,5.7-8.9l-0.1-1.5c2.9-2.7,7.1-2.6,7.1-2.6
						l-2.7-2.2c1.7,0.6,11.2-3.1,19.8-3.3c7-0.2,9,2.8,9.5,4c0.8-0.2,2.5-0.2,5.5,1.3c1.9,0.9,4.6,4,7.1,8.8c2.5,4.7,2,27.5,2,27.5
						L35.4,67.2z"/>
				</g>
				<g>
					<path class="st2" d="M35.4,67.8c0,0,0.1,0,0.1,0c0.3-0.1,0.6-0.4,0.5-0.7c0-0.2-4.4-22.3-2.8-27.1c1.6-4.9,5.5-8.6,5.5-8.6
						c0.1-0.1,0.2-0.3,0.2-0.5l-0.1-1.2c2.7-2.3,6.4-2.2,6.4-2.2c0.3,0,0.5-0.2,0.6-0.4s0-0.5-0.2-0.7l-1.4-1.2
						c1-0.2,2.4-0.5,4.2-0.9c3.8-0.9,9-2.2,13.9-2.3c1.7,0,7.3,0.1,8.9,3.6c0.1,0.3,0.5,0.4,0.8,0.4c0.6-0.2,2-0.2,5.1,1.2
						c1.5,0.7,4.2,3.4,6.9,8.5c2.4,4.5,1.9,27,1.9,27.2c0,0.4,0.3,0.6,0.6,0.6c0,0,0,0,0,0c0.3,0,0.6-0.3,0.6-0.6
						c0-0.9,0.5-23-2.1-27.8c-2.4-4.5-5.2-8-7.4-9c-2.3-1.1-4.1-1.6-5.5-1.4c-0.9-1.5-3.3-4.1-9.8-3.9c-5,0.1-10.3,1.4-14.1,2.4
						c-2.4,0.6-4.9,1.2-5.4,1c-0.3-0.1-0.6,0-0.8,0.3c-0.2,0.3-0.1,0.6,0.1,0.8l1.5,1.2c-1.6,0.2-4,0.9-5.9,2.7
						c-0.1,0.1-0.2,0.3-0.2,0.5l0.1,1.2c-0.9,0.9-4.2,4.4-5.6,9c-1.7,5.2,2.6,26.9,2.8,27.8C34.9,67.6,35.1,67.8,35.4,67.8z"/>
				</g>
				<g>
					<path class="st4" d="M82.1,221.3h-4l0.2,1.1H76l-1.3-1.3l-1.5,8.4h17.6c0,0,0-2.5-0.3-3c-0.1-0.2-2.5-1.6-2.5-1.6L82.1,221.3z"
						/>
					<path class="st2" d="M72.7,230c-0.1-0.1-0.2-0.3-0.1-0.5l1.5-8.4c0-0.2,0.2-0.4,0.4-0.5c0.2-0.1,0.5,0,0.6,0.1l1.1,1.1h1.2
						l-0.1-0.4c0-0.2,0-0.4,0.1-0.5c0.1-0.1,0.3-0.2,0.5-0.2h4c0.1,0,0.2,0,0.3,0.1l5.9,3.7c2.5,1.5,2.6,1.7,2.7,1.8
						c0.3,0.5,0.4,2.1,0.4,3.3c0,0.3-0.3,0.6-0.6,0.6H73.2C73,230.2,72.8,230.1,72.7,230z M90,227c-0.3-0.2-1.4-0.9-2.3-1.5
						l-5.8-3.6h-3.1l0.1,0.4c0,0.2,0,0.4-0.1,0.5c-0.1,0.1-0.3,0.2-0.5,0.2H76c-0.2,0-0.3-0.1-0.4-0.2l-0.5-0.4L74,229h16.2
						C90.1,228.1,90.1,227.3,90,227z M90,227L90,227L90,227z"/>
				</g>
				<g>
					<polygon class="st4" points="57.7,222.4 57.4,221.3 53.1,221.3 49,225 46.5,226.5 46.2,229.6 60.5,229.6 59.3,222.4 					"/>
					<path class="st2" d="M45.7,230c-0.1-0.1-0.2-0.3-0.2-0.5l0.3-3.1c0-0.2,0.1-0.4,0.3-0.5l2.4-1.5l4.1-3.7
						c0.1-0.1,0.3-0.2,0.4-0.2h4.3c0.3,0,0.6,0.2,0.6,0.5l0.2,0.7h1.1c0.3,0,0.6,0.2,0.6,0.5l1.2,7.2c0,0.2,0,0.4-0.1,0.5
						c-0.1,0.1-0.3,0.2-0.5,0.2H46.2C46,230.2,45.9,230.2,45.7,230z M58.7,223.1h-1c-0.3,0-0.6-0.2-0.6-0.5l-0.2-0.7h-3.5l-4,3.6
						c0,0-0.1,0-0.1,0.1l-2.2,1.3l-0.2,2.1h12.8L58.7,223.1z"/>
				</g>
				<g>
					<polygon class="st5" points="46.7,153.1 48.7,138.7 63,138.7 63.2,138.7 77.5,138.7 79.4,153.1 83.4,219.4 84.8,222.7 74,225 
						63.1,157.2 60.2,223.6 50,223.6 50.7,219 					"/>
					<path class="st2" d="M73.7,225.5c-0.1-0.1-0.2-0.3-0.3-0.4l-10-61.6l-2.6,60.2c0,0.3-0.3,0.6-0.6,0.6H50
						c-0.2,0-0.4-0.1-0.5-0.2c-0.1-0.1-0.2-0.3-0.1-0.5l0.7-4.5l-4-65.8c0,0,0-0.1,0-0.1l1.9-14.4c0-0.3,0.3-0.6,0.6-0.6h28.8
						c0.3,0,0.6,0.2,0.6,0.6l1.9,14.4c0,0,0,0,0,0l4,66.1l1.3,3.3c0.1,0.2,0.1,0.4,0,0.5c-0.1,0.2-0.2,0.3-0.4,0.3l-10.8,2.2
						c0,0-0.1,0-0.1,0C73.9,225.6,73.8,225.6,73.7,225.5z M82.8,219.6c0-0.1,0-0.1,0-0.2l-4-66.2l-1.9-13.8H49.2l-1.9,13.8l4,65.8
						c0,0,0,0.1,0,0.1l-0.6,3.8h8.9l2.8-65.8c0-0.3,0.3-0.6,0.6-0.6c0.3,0,0.6,0.2,0.7,0.5l10.9,67.1l9.4-1.9L82.8,219.6z"/>
				</g>
				<g>
					<g>
						<path class="st6" d="M41.1,99.4c0-3.1,7-4.2,7.2-4.2l0,0l11-3.1h7.6l11,3.1l0,0c0.2,0,7.2,1.1,7.2,4.2c0,0.1,0.1,1.8,0.1,1.8
							l-11.2,6.7v3.1H67h-2.5h-2.9h-2.5h-6.9v-3.1l-11.2-6.7C41.1,101.1,41.1,99.5,41.1,99.4z"/>
						<path class="st2" d="M51.6,110.9v-2.7l-10.9-6.5c-0.2-0.1-0.3-0.3-0.3-0.6c0-0.6,0.1-1.6,0.1-1.7c0-3.6,6.9-4.7,7.7-4.8
							l10.9-3.1c0.1,0,0.1,0,0.2,0h7.6c0.1,0,0.1,0,0.2,0L78,94.6c0.8,0.1,7.7,1.2,7.7,4.8c0,0.1,0,1.1,0.1,1.7
							c0,0.2-0.1,0.5-0.3,0.6l-10.9,6.5v2.7c0,0.4-0.3,0.6-0.6,0.6H52.3C51.9,111.5,51.6,111.2,51.6,110.9z M73.2,107.8
							c0-0.2,0.1-0.4,0.3-0.5l10.9-6.5c0-0.6-0.1-1.3-0.1-1.4c0-2.2-5.3-3.4-6.6-3.6c0,0-0.1,0-0.1,0l-10.8-3.1h-7.4l-10.9,3.1
							c0,0-0.1,0-0.1,0c-1.8,0.2-6.6,1.5-6.6,3.6c0,0.1,0,0.9-0.1,1.4l10.9,6.5c0.2,0.1,0.3,0.3,0.3,0.5v2.4h20.3V107.8z M40.5,99.4
							L40.5,99.4L40.5,99.4z"/>
					</g>
					<g>
						<polygon class="st7" points="58.2,96.2 67.9,96.2 66.8,88.5 59.3,88.5 						"/>
						<path class="st2" d="M57.7,96.6c-0.1-0.1-0.2-0.3-0.1-0.5l1.1-7.7c0-0.3,0.3-0.5,0.6-0.5h7.5c0.3,0,0.6,0.2,0.6,0.5l1.1,7.7
							c0,0.2,0,0.4-0.1,0.5c-0.1,0.1-0.3,0.2-0.5,0.2h-9.7C58,96.8,57.8,96.8,57.7,96.6z M66.3,89.2h-6.4l-0.9,6.4h8.2L66.3,89.2z"
							/>
					</g>
					<g>
						<path class="st7" d="M67.3,92.2l3.3,0.9c0,0-5.5,5.5-7.5,5.5c-2.1,0-7.5-5.5-7.5-5.5l3.3-0.9L67.3,92.2z"/>
					</g>
					<g>
						<path class="st2" d="M63.1,99.3c2.2,0,7.1-4.7,8-5.7c0.2-0.2,0.2-0.4,0.2-0.6c-0.1-0.2-0.2-0.4-0.4-0.5l-3.3-0.9
							c-0.3-0.1-0.7,0.1-0.8,0.4c-0.1,0.3,0.1,0.7,0.4,0.8l2.2,0.6c-2.2,2.1-5.2,4.5-6.3,4.5c-1.1,0-4.1-2.5-6.3-4.5l2.2-0.6
							c0.3-0.1,0.5-0.4,0.4-0.8c-0.1-0.3-0.4-0.5-0.8-0.4l-3.3,0.9c-0.2,0.1-0.4,0.2-0.4,0.5c-0.1,0.2,0,0.4,0.2,0.6
							C56,94.5,60.8,99.3,63.1,99.3z"/>
					</g>
				</g>
				<g>
					<path class="st7" d="M93.9,110.5c2.4-3.3,4.5-5.8,4.5-5.8l4.8,2.6c0,0-1.4,2.9-3.3,6.6L93.9,110.5z"/>
				</g>
				<g>
					<path class="st2" d="M99.8,114.5c0.2,0,0.5-0.1,0.6-0.3c1.9-3.6,3.3-6.6,3.3-6.6c0.1-0.3,0-0.7-0.3-0.8l-4.8-2.6
						c-0.3-0.2-0.6-0.1-0.8,0.2c0,0-2.1,2.6-4.5,5.9c-0.2,0.3-0.1,0.7,0.1,0.9c0.3,0.2,0.7,0.1,0.9-0.1c1.8-2.5,3.4-4.5,4.1-5.4
						l3.8,2.1c-0.5,1-1.6,3.3-3,6c-0.2,0.3,0,0.7,0.3,0.9C99.6,114.5,99.7,114.5,99.8,114.5z"/>
				</g>
				<g>
					<path class="st6" d="M84.8,98.5c0,0,4.1,12.1,5.4,16.4c3.6-5.2,5.9-8.4,5.9-8.4l6.6,4.1c0,0-9.6,17.7-13.7,17.7
						c-3.6-0.1-11.6-22.5-11.6-22.5L84.8,98.5z"/>
				</g>
				<g>
					<path class="st2" d="M89.1,128.8c0.8,0,3.1-0.3,8.9-9.1c2.9-4.4,5.3-8.9,5.3-8.9c0.2-0.3,0.1-0.7-0.2-0.8l-6.6-4.1
						c-0.3-0.2-0.6-0.1-0.8,0.2c0,0-2.1,2.8-5.2,7.3c-1.6-5-5-15-5-15.1c-0.1-0.3-0.5-0.5-0.8-0.4c-0.3,0.1-0.5,0.5-0.4,0.8
						c0,0.1,4.1,12.1,5.4,16.3c0.1,0.2,0.3,0.4,0.5,0.4c0.2,0,0.5-0.1,0.6-0.3c2.7-4,4.8-6.8,5.6-7.9l5.6,3.5
						c-0.7,1.3-2.7,4.8-5,8.3c-5,7.7-7.2,8.5-7.9,8.5c0,0,0,0,0,0c-1.6,0-6.1-8.3-11-22.1c-0.1-0.3-0.5-0.5-0.8-0.4
						c-0.3,0.1-0.5,0.5-0.4,0.8c0,0.1,2,5.7,4.5,11.3c5.1,11.6,7,11.6,7.7,11.7C89,128.8,89.1,128.8,89.1,128.8z"/>
				</g>
				<g>
					<path class="st7" d="M39.5,133.2c2.2,2.9,4,5.1,4,5.1l3.6-1.9c0,0-1.3-2.8-2.7-6.1L39.5,133.2z"/>
				</g>
				<g>
					<path class="st2" d="M43.5,139c0.1,0,0.2,0,0.3-0.1l3.6-1.9c0.3-0.2,0.4-0.5,0.3-0.8c0,0-1.3-2.8-2.7-6.1
						c-0.1-0.3-0.5-0.5-0.8-0.3c-0.3,0.1-0.5,0.5-0.3,0.8c1.1,2.4,2,4.6,2.5,5.6l-2.6,1.4c-0.6-0.8-2-2.5-3.6-4.7
						c-0.2-0.3-0.6-0.3-0.9-0.1c-0.3,0.2-0.3,0.6-0.1,0.9c2.1,2.9,4,5.1,4,5.1C43.1,138.9,43.3,139,43.5,139z"/>
				</g>
				<g>
					<path class="st6" d="M41.6,98.1c0,0-9.9,20-9.6,22.8c0.7,5.2,8.9,15.7,8.9,15.7l5.7-3.8c0,0-5.8-11.9-6-12.4
						c-0.2-0.9,7.9-15.3,7.9-15.3L41.6,98.1z"/>
				</g>
				<g>
					<path class="st2" d="M41,137.1c0.1,0,0.2,0,0.4-0.1l5.7-3.8c0.3-0.2,0.4-0.5,0.2-0.8c-2.1-4.3-5.5-11.2-5.9-12.2
						c0.3-1.2,4.2-8.5,7.8-14.9c0.2-0.3,0.1-0.7-0.2-0.9c-0.3-0.2-0.7-0.1-0.9,0.2c0,0-2,3.6-4,7.3c-4.1,7.6-4,8.1-3.9,8.4
						c0.1,0.5,3.9,8.3,5.8,12.1l-4.7,3.1c-1.6-2.1-7.8-10.5-8.5-14.9c-0.3-1.8,5.7-14.7,9.5-22.4c0.2-0.3,0-0.7-0.3-0.9
						c-0.3-0.2-0.7,0-0.9,0.3c0,0.1-2.5,5.1-4.9,10.4c-5,10.9-4.8,12.2-4.7,12.8c0.8,5.3,8.7,15.5,9.1,16
						C40.6,137.1,40.8,137.1,41,137.1z"/>
				</g>
				<g>
					<polygon class="st6" points="79.3,103.8 78.3,138.4 65.1,138.4 61,138.4 47.8,138.4 46.8,103.8 					"/>
				</g>
				<g>
					<path class="st2" d="M47.8,139h30.5c0.3,0,0.6-0.3,0.6-0.6l1-34.6c0-0.4-0.3-0.6-0.6-0.7c-0.3,0-0.6,0.3-0.7,0.6l-1,33.9H48.4
						l-1-33.9c0-0.4-0.3-0.6-0.7-0.6c-0.4,0-0.6,0.3-0.6,0.7l1,34.6C47.2,138.8,47.4,139,47.8,139z"/>
				</g>
				<g>
					<path class="st8" d="M63.1,134.7H47.7c0,0-1.5,10.6-1.9,18.1c-1,21.6-1.3,30.8-1.3,30.8h18.5h18.5c0,0-0.3-9.1-1.3-30.8
						c-0.3-7.5-1.9-18.1-1.9-18.1H63.1z"/>
					<path class="st2" d="M44.1,184c-0.1-0.1-0.2-0.3-0.2-0.5c0-0.1,0.3-9.4,1.3-30.8c0.3-7.4,1.8-18,1.9-18.1
						c0-0.3,0.3-0.5,0.6-0.5h30.8c0.3,0,0.6,0.2,0.6,0.5c0,0.1,1.5,10.8,1.9,18.1c1,21.4,1.3,30.7,1.3,30.8c0,0.2-0.1,0.3-0.2,0.5
						c-0.1,0.1-0.3,0.2-0.5,0.2h-37C44.4,184.2,44.2,184.2,44.1,184z M79.7,152.8c-0.3-6.4-1.5-15.2-1.8-17.5H48.2
						c-0.3,2.3-1.5,11.1-1.8,17.5c-0.9,18.2-1.2,27.7-1.3,30.1h35.7C80.8,180.5,80.5,171.1,79.7,152.8z"/>
				</g>
				<g>
					<polygon class="st8" points="72.8,151 80.2,151 80,148.2 72.8,148.2 					"/>
					<path class="st2" d="M72.1,151v-2.9c0-0.4,0.3-0.6,0.6-0.6H80c0.3,0,0.6,0.3,0.6,0.6l0.2,2.9c0,0.2,0,0.4-0.2,0.5
						c-0.1,0.1-0.3,0.2-0.5,0.2h-7.4C72.4,151.7,72.1,151.4,72.1,151z M79.4,148.8h-6v1.6h6.1L79.4,148.8z"/>
				</g>
				<g>
					<polygon class="st8" points="53.4,151 45.9,151 46.2,148.2 53.4,148.2 					"/>
					<path class="st2" d="M45.5,151.4c-0.1-0.1-0.2-0.3-0.2-0.5l0.2-2.9c0-0.3,0.3-0.6,0.6-0.6h7.2c0.4,0,0.6,0.3,0.6,0.6v2.9
						c0,0.4-0.3,0.6-0.6,0.6h-7.4C45.7,151.7,45.6,151.6,45.5,151.4z M52.7,148.8h-6l-0.1,1.6h6.1V148.8z"/>
				</g>
				<g>
					<polygon class="st8" points="63.1,131.2 47.6,131.2 47.7,134.7 63.1,134.7 78.4,134.7 78.6,131.2 					"/>
					<path class="st2" d="M47,134.7l-0.1-3.5c0-0.2,0.1-0.3,0.2-0.5c0.1-0.1,0.3-0.2,0.5-0.2h31c0.2,0,0.3,0.1,0.5,0.2
						c0.1,0.1,0.2,0.3,0.2,0.5l-0.1,3.5c0,0.3-0.3,0.6-0.6,0.6H47.7C47.3,135.4,47,135.1,47,134.7z M77.9,131.8H48.2l0.1,2.2h29.5
						L77.9,131.8z"/>
				</g>
				<g>
					<polygon class="st8" points="63.1,131.2 47.6,131.2 47.2,118.8 50.1,94.7 53.5,93.7 53.2,104.9 63.1,104.9 72.9,104.9 
						72.6,93.7 76,94.7 78.9,118.8 78.6,131.2 					"/>
					<path class="st2" d="M46.9,131.2l-0.3-12.4c0,0,0-0.1,0-0.1l2.9-24.1c0-0.3,0.2-0.5,0.5-0.5l3.4-1c0.2-0.1,0.4,0,0.6,0.1
						c0.2,0.1,0.3,0.3,0.2,0.5l-0.3,10.6h18.4L72,93.7c0-0.2,0.1-0.4,0.2-0.5c0.2-0.1,0.4-0.2,0.6-0.1l3.4,1
						c0.2,0.1,0.4,0.3,0.5,0.5l2.9,24.1c0,0,0,0.1,0,0.1l-0.3,12.4c0,0.3-0.3,0.6-0.6,0.6h-31C47.2,131.8,46.9,131.6,46.9,131.2z
						 M78.3,118.8l-2.8-23.7l-2.2-0.6l0.3,10.4c0,0.2-0.1,0.3-0.2,0.5c-0.1,0.1-0.3,0.2-0.5,0.2H53.2c-0.2,0-0.3-0.1-0.5-0.2
						c-0.1-0.1-0.2-0.3-0.2-0.5l0.3-10.4l-2.2,0.6l-2.8,23.7l0.3,11.7h29.8L78.3,118.8z"/>
				</g>
				<g>
					<polygon class="st9" points="63.1,95.8 66.9,96.2 63.1,101.3 59.2,96.2 					"/>
					<path class="st2" d="M62.6,101.7l-3.9-5.1c-0.1-0.2-0.2-0.4-0.1-0.6c0.1-0.2,0.3-0.4,0.5-0.4l3.9-0.5c0.1,0,0.1,0,0.2,0
						l3.9,0.5c0.2,0,0.4,0.2,0.5,0.4s0.1,0.5-0.1,0.6l-3.9,5.1c-0.1,0.2-0.3,0.3-0.5,0.3C62.9,102,62.7,101.9,62.6,101.7z
						 M63.1,96.4l-2.7,0.3l2.7,3.5l2.7-3.5L63.1,96.4z"/>
				</g>
				<g>
					<path class="st9" d="M63.1,95.8l-4.2-4l-3.3,1.4c0,0,0.9,8.2,1.1,8.3C56.8,101.6,63.1,95.8,63.1,95.8z"/>
					<path class="st2" d="M56.3,102c-0.4-0.2-0.5-0.3-1.4-8.8c0-0.3,0.1-0.5,0.4-0.7l3.3-1.4c0.2-0.1,0.5,0,0.7,0.1l4.2,4
						c0.1,0.1,0.2,0.3,0.2,0.5c0,0.2-0.1,0.3-0.2,0.5c-5.4,5-6.4,5.9-6.9,5.9C56.5,102.1,56.4,102.1,56.3,102z M57.2,101.2
						L57.2,101.2L57.2,101.2z M58.7,92.5l-2.5,1.1c0.3,2.6,0.6,5.4,0.8,6.8c1.1-0.9,3.1-2.8,5.1-4.6L58.7,92.5z"/>
				</g>
				<g>
					<path class="st9" d="M63.1,95.8l4.2-4l3.3,1.4c0,0-0.9,8.2-1.1,8.3C69.3,101.6,63.1,95.8,63.1,95.8z"/>
					<path class="st2" d="M62.6,96.2c-0.1-0.1-0.2-0.3-0.2-0.5c0-0.2,0.1-0.3,0.2-0.5l4.2-4c0.2-0.2,0.5-0.2,0.7-0.1l3.3,1.4
						c0.3,0.1,0.4,0.4,0.4,0.7c-0.9,8.5-1.1,8.6-1.4,8.8c-0.1,0.1-0.2,0.1-0.3,0.1C69,102.1,68,101.2,62.6,96.2z M68.9,101.2
						L68.9,101.2L68.9,101.2z M67.4,92.5L64,95.8c2,1.8,4,3.7,5.1,4.6c0.2-1.4,0.5-4.2,0.8-6.8L67.4,92.5z"/>
				</g>
				<g>
					<path class="st7" d="M80,61.5c0.3,3.5,2,6.3,4.8,6.1c2.8-0.2,4.8-3.3,4.4-6.9c-0.3-3.5-2.8-6.2-5.6-6
						C80.9,54.9,79.7,57.9,80,61.5z"/>
					<path class="st2" d="M81,66.3c-0.9-1.2-1.4-2.8-1.6-4.8c-0.2-1.9,0.1-3.7,0.7-5c0.7-1.5,1.9-2.4,3.5-2.5
						c3.1-0.3,5.9,2.7,6.3,6.6c0.2,1.9-0.3,3.7-1.2,5.1c-0.9,1.5-2.3,2.3-3.9,2.5c-0.1,0-0.3,0-0.4,0C83.1,68.2,81.9,67.5,81,66.3z
						 M83.7,55.3c-1.1,0.1-1.9,0.7-2.5,1.8c-0.5,1.1-0.7,2.6-0.6,4.3v0c0.1,1.7,0.6,3.1,1.3,4.1c0.7,1,1.6,1.4,2.7,1.3
						c1.1-0.1,2.2-0.8,2.9-1.9c0.8-1.2,1.1-2.7,1-4.3c-0.3-3.1-2.3-5.4-4.6-5.4C83.9,55.3,83.8,55.3,83.7,55.3z"/>
				</g>
				<g>
					<path class="st7" d="M41.5,64.8c0.3,3.5-0.9,6.5-3.6,6.8c-2.8,0.2-5.3-2.4-5.6-6C32,62.1,34,59,36.8,58.8
						C39.5,58.5,41.2,61.3,41.5,64.8z"/>
					<path class="st2" d="M31.7,65.7c-0.2-1.9,0.3-3.7,1.2-5.1c0.9-1.5,2.3-2.3,3.9-2.5c2.9-0.3,5.1,2.3,5.4,6.6v0
						c0.4,4.3-1.3,7.2-4.2,7.5c-0.1,0-0.3,0-0.4,0C34.6,72.3,32,69.4,31.7,65.7z M40.9,64.9c-0.2-2.7-1.4-5.7-4.1-5.5
						c-1.1,0.1-2.2,0.8-2.9,1.9c-0.8,1.2-1.1,2.7-1,4.3c0.3,3.2,2.5,5.6,4.9,5.4C40.5,70.8,41.1,67.6,40.9,64.9L40.9,64.9z"/>
				</g>
				<g>
					<path class="st7" d="M63.1,89.2c-14.2,1.2-23.9-9.5-25.4-17.1c-0.7-3.5-2-8.7-2.4-12.6c-0.4-4.8-0.2-13.2,1-16.6
						c3.5-9.7,2.4-5.2,22.2-6.9c19.8-1.7,17.9-6,23,2.9c1.8,3.2,3.5,11.4,3.9,16.2c0.3,3.9-0.1,9.3-0.2,12.8
						C85,75.7,77.2,88,63.1,89.2z"/>
				</g>
				<g>
					<path class="st2" d="M45.2,84.5c-4.2-3.3-7.4-8-8.2-12.2c-0.2-0.9-0.4-2-0.7-3.1c-0.7-3.1-1.5-6.7-1.7-9.5
						c-0.4-4.7-0.3-13.2,1-16.9c1.2-3.3,1.9-5.1,3.2-6.1c1.3-0.9,3-0.9,6.2-0.8c2.8,0.1,7,0.1,13.3-0.4c6.3-0.5,10.4-1.4,13.2-1.9
						c6.3-1.2,6.8-1.2,10.5,5.2c1.9,3.4,3.5,11.7,4,16.4c0.3,2.9,0.1,6.5,0,9.7c0,1.2-0.1,2.2-0.1,3.2c-0.1,4.3-2.4,9.5-6,13.5
						c-3,3.4-8.4,7.7-16.7,8.4h0c-0.8,0.1-1.6,0.1-2.3,0.1C53.7,89.9,48.5,87,45.2,84.5z M63,88.6c13.6-1.2,21.3-13,21.5-20.6
						c0-1,0.1-2.1,0.1-3.2c0.1-3.2,0.3-6.7,0-9.5c-0.4-4.5-2-12.8-3.8-15.9c-3.3-5.7-3.3-5.7-9.1-4.5c-2.8,0.5-7,1.4-13.3,1.9
						S47.9,37.1,45,37c-5.9-0.1-5.9-0.1-8.2,6.1c-1.2,3.4-1.4,11.8-1,16.3c0.2,2.8,1,6.3,1.7,9.4c0.3,1.1,0.5,2.2,0.7,3.2
						C39.8,79.5,49.4,89.8,63,88.6L63,88.6z"/>
				</g>
				<g>
					<path class="st2" d="M36.1,40.2l-0.8,2.6c5.2-0.8,10.9-4.4,10.9-4.4l-1.1,3.8c7-1.6,10.9-4.9,10.9-4.9
						c-0.6,1.5-2.5,4.2-2.5,4.2c6.8-1.3,14.5-5.1,14.5-5.1c-0.3,1.5-1.5,3.7-1.5,3.7c10.3-2,11.3-5,12.2-6.5l-0.4-3.4L38,33.5
						L36.1,40.2z"/>
				</g>
				<g>
					<path class="st2" d="M35.3,43.5C35.3,43.5,35.4,43.5,35.3,43.5c3.9-0.6,7.9-2.5,9.9-3.6l-0.6,2.2c-0.1,0.2,0,0.4,0.2,0.6
						c0.2,0.2,0.4,0.2,0.6,0.2c4.1-0.9,7.1-2.4,9-3.5c-0.6,1-1.2,1.8-1.2,1.8c-0.1,0.2-0.1,0.5,0,0.7c0.1,0.2,0.4,0.3,0.7,0.3
						c5.2-1,10.9-3.4,13.4-4.5c-0.4,1.1-1,2.2-1,2.2C66,40,66,40.3,66.2,40.5c0.1,0.2,0.4,0.3,0.6,0.2c9.8-1.9,11.5-4.9,12.4-6.5
						c0.1-0.1,0.1-0.2,0.2-0.3c0.2-0.3,0.1-0.7-0.2-0.9c-0.3-0.2-0.7-0.1-0.9,0.2c-0.1,0.1-0.1,0.2-0.2,0.3
						c-0.8,1.4-2.2,3.8-10.3,5.6c0.4-0.8,0.8-1.8,1-2.7c0.1-0.2,0-0.5-0.2-0.6s-0.5-0.2-0.7-0.1c-0.1,0-6.6,3.3-12.9,4.7
						c0.6-0.9,1.3-2.2,1.7-3c0.1-0.3,0-0.6-0.2-0.8c-0.2-0.2-0.6-0.2-0.8,0c0,0-3.5,2.9-9.6,4.5l0.8-2.7c0.1-0.3,0-0.5-0.2-0.7
						c-0.2-0.2-0.5-0.2-0.7,0C45.9,38,41,41,36.2,42l0.5-1.6c0.1-0.3-0.1-0.7-0.4-0.8c-0.3-0.1-0.7,0.1-0.8,0.4l-0.8,2.6
						c-0.1,0.2,0,0.4,0.1,0.6C34.9,43.4,35.1,43.5,35.3,43.5z"/>
				</g>
				<g>
					<path class="st2" d="M61.2,82.1c0.4,0,0.8,0,1.2-0.1c5.4-0.5,6.6-3.4,6.6-3.5c0.1-0.3,0-0.7-0.4-0.8c-0.3-0.1-0.7,0-0.8,0.4
						c0,0.1-1,2.3-5.6,2.7c-4.5,0.4-5.9-1.7-6-1.7c-0.2-0.3-0.6-0.4-0.9-0.2c-0.3,0.2-0.4,0.6-0.2,0.9
						C55.3,79.9,56.8,82.1,61.2,82.1z"/>
				</g>
				<g>
					<g>
						<path class="st2" d="M75.6,51c0.2,0,0.4-0.1,0.5-0.2c0.2-0.3,0.2-0.7-0.1-0.9c-2.1-1.6-6.6-2.1-8.5-0.4
							c-0.3,0.2-0.3,0.6,0,0.9c0.2,0.3,0.6,0.3,0.9,0c1.3-1.2,5-0.9,6.8,0.5C75.3,51,75.5,51,75.6,51z"/>
					</g>
					<g>
						<path class="st2" d="M44,53.8c0.2,0,0.3-0.1,0.5-0.2c1.5-1.7,5.2-2.6,6.7-1.7c0.3,0.2,0.7,0.1,0.9-0.2
							c0.2-0.3,0.1-0.7-0.2-0.9c-2.1-1.4-6.5-0.1-8.3,1.9c-0.2,0.3-0.2,0.7,0,0.9C43.7,53.8,43.8,53.8,44,53.8z"/>
					</g>
				</g>
				<g>
					<g>
						<path class="st2" d="M61.6,73.5C61.6,73.5,61.7,73.5,61.6,73.5c0.4,0,0.7-0.3,0.6-0.7l-0.1-1.6c0-0.3-0.3-0.6-0.7-0.6
							c-0.3,0-0.6,0.3-0.6,0.7l0.1,1.6C61,73.2,61.3,73.5,61.6,73.5z"/>
					</g>
				</g>
				<g>
					<path class="st2" d="M68.4,60.7C68.4,60.7,68.4,60.7,68.4,60.7c0.4,0,0.7-0.3,0.6-0.7c-0.1-1.7,0.6-3,1.8-3.2
						c1.1-0.2,2.6,0.6,3.3,2.9c0.1,0.3,0.5,0.5,0.8,0.4c0.3-0.1,0.5-0.5,0.4-0.8c-0.9-3.1-3-4.1-4.7-3.8c-1.5,0.3-3,1.8-2.9,4.5
						C67.8,60.4,68.1,60.7,68.4,60.7z"/>
				</g>
				<g>
					<path class="st2" d="M46.4,62.7c0.3,0,0.6-0.2,0.6-0.6c0.3-2.4,1.6-3.5,2.7-3.5h0c1.2,0,2.1,1.1,2.3,2.8c0,0.3,0.4,0.6,0.7,0.6
						c0.3,0,0.6-0.4,0.6-0.7c-0.3-2.7-2-4-3.6-4c0,0,0,0,0,0c-1.7,0-3.6,1.4-4,4.6C45.7,62.3,46,62.6,46.4,62.7
						C46.4,62.7,46.4,62.7,46.4,62.7z"/>
				</g>
				<g>
					<g>
						<path class="st7" d="M97.2,105.5c0,0-0.5-4.3-0.9-6.5C95.9,97,96.8,94,98,91c0.7-1.8,0.2-2.4,1.1-4.3c0.4-0.9,1.7-2.8,3.4-2.1
							c1.3,0.5,0.9,3,0.9,3l0.9,2.3c0,0,5.1-3.6,6.6-1c1.5,2.5,2.2,4.1,1.9,7.6c-0.3,3.5-1.4,5.3-1.8,5.8c-0.7,1-7.6,5.2-8.8,6
							L97.2,105.5z"/>
					</g>
					<g>
						<path class="st2" d="M102.3,109c0.1,0,0.3,0,0.4-0.1c0.3-0.2,1.2-0.8,2.2-1.4c4.1-2.6,6.3-4.1,6.8-4.8
							c0.6-0.8,1.6-2.8,1.9-6.1c0.3-3.5-0.4-5.2-2-8c-0.4-0.6-0.9-1-1.6-1.1c-1.8-0.4-4.1,0.9-5.2,1.6l-0.6-1.4
							c0.1-0.7,0.2-2.9-1.3-3.5c-1.8-0.8-3.4,0.8-4.2,2.4c-0.6,1.1-0.6,1.8-0.7,2.5c-0.1,0.5-0.1,1.1-0.4,1.8
							c-1.5,3.7-2.1,6.5-1.8,8.4c0.4,2.2,0.9,6.4,0.9,6.5c0,0.3,0.4,0.6,0.7,0.6c0.3,0,0.6-0.4,0.6-0.7c0,0-0.5-4.3-0.9-6.5
							c-0.3-1.6,0.3-4.3,1.7-7.7c0.4-0.9,0.4-1.6,0.5-2.1c0.1-0.6,0.1-1.2,0.6-2.1c0.1-0.2,1.2-2.3,2.5-1.8c0.6,0.3,0.6,1.7,0.5,2.4
							c0,0.1,0,0.2,0,0.3l0.9,2.3c0.1,0.2,0.2,0.3,0.4,0.4c0.2,0.1,0.4,0,0.5-0.1c0.9-0.6,3.4-2.1,4.9-1.8c0.4,0.1,0.6,0.3,0.8,0.6
							c1.5,2.5,2.1,3.9,1.9,7.2c-0.2,3.1-1.1,4.8-1.7,5.5c-0.4,0.6-4.5,3.2-6.4,4.4c-1.1,0.7-1.9,1.2-2.3,1.5
							c-0.3,0.2-0.4,0.6-0.1,0.9C101.9,108.9,102.1,109,102.3,109z"/>
					</g>
					<g>
						<g>
							<path class="st10" d="M98.5,89.4c0,0,2-1.9,3.9-1.2c1.9,0.7,3.4,2.3,2.1,10.5c-0.8,5.5-8.1,4-8.1,4l0.5-2.9
								c0,0,4,0.7,4.5-1.5c0.7-2.8,0.9-7.1,0.2-7.1s-3.2,1.1-3.2,1.1L98.5,89.4z"/>
							<path class="st2" d="M96.2,103.3c-0.3-0.1-0.6-0.4-0.5-0.7l0.5-2.9c0-0.2,0.1-0.3,0.3-0.4c0.1-0.1,0.3-0.1,0.5-0.1
								c0,0,3.4,0.6,3.8-1c0.6-2.4,0.7-5.4,0.5-6.3c-0.6,0.1-1.8,0.6-2.7,1c-0.2,0.1-0.4,0.1-0.6-0.1c-0.2-0.1-0.3-0.3-0.3-0.6
								l0.2-3c0-0.2,0.1-0.3,0.2-0.4c0.1-0.1,2.3-2.2,4.6-1.3c2.5,1,3.7,3.1,2.5,11.2c-0.2,1.5-0.9,2.7-2.1,3.5
								c-1.4,1-3.1,1.2-4.5,1.2C97.2,103.5,96.3,103.3,96.2,103.3z M99.1,89.7L99,91.4c0.9-0.3,2-0.7,2.5-0.7c0.3,0,0.5,0.1,0.7,0.3
								c0.8,1,0.3,5.5-0.2,7.5c-0.5,2.2-3.3,2.2-4.6,2l-0.3,1.6c1.1,0.1,3.6,0.3,5.2-0.9c0.9-0.6,1.4-1.5,1.6-2.7
								c1.3-8.7-0.5-9.4-1.7-9.9c-0.2-0.1-0.5-0.1-0.7-0.1C100.4,88.7,99.5,89.4,99.1,89.7z"/>
						</g>
						<g>
							<path class="st11" d="M77.6,84.8c0-2.7,5.2-4.9,11.6-4.9c6.4,0,11.6,2.2,11.6,4.9c0,0.2,0,0.4-0.1,0.6l-3,21.3
								c-0.4,1.5-3.8,2.4-8.5,2.4c-4.7,0-8.1-1-8.5-2.4l-3-21.3C77.6,85.2,77.6,85,77.6,84.8z"/>
							<path class="st2" d="M80.1,106.9C80.1,106.8,80.1,106.8,80.1,106.9l-3-21.3C77,85.3,77,85,77,84.8c0-3.1,5.4-5.5,12.2-5.5
								c6.9,0,12.2,2.4,12.2,5.5c0,0.2,0,0.5-0.1,0.7l-3,21.3c0,0,0,0.1,0,0.1c-0.7,2.5-6,2.9-9.1,2.9
								C85.2,109.7,80.7,108.9,80.1,106.9z M100.1,85.3C100.1,85.3,100.1,85.2,100.1,85.3c0.1-0.2,0.1-0.4,0.1-0.5
								c0-2.5-5.8-4.3-11-4.3s-11,1.7-11,4.3c0,0.1,0,0.3,0.1,0.4c0,0,0,0.1,0,0.1l3,21.2c0.3,0.8,2.9,1.9,7.9,1.9
								c5,0,7.6-1,7.9-1.9L100.1,85.3z M80.7,106.7L80.7,106.7L80.7,106.7z"/>
						</g>
						<g>
							<path class="st12" d="M89.2,83.6c3.6,0,6.8,0.7,8.8,1.7c-1,1.1-4.5,1.9-8.8,1.9c-4.3,0-7.8-0.8-8.8-1.9
								C82.4,84.3,85.6,83.6,89.2,83.6z"/>
							<path class="st2" d="M79.9,85.7c-0.1-0.1-0.2-0.3-0.1-0.5c0-0.2,0.2-0.4,0.3-0.4c2.2-1.1,5.5-1.8,9.1-1.8
								c3.6,0,6.9,0.6,9.1,1.8c0.2,0.1,0.3,0.3,0.3,0.4c0,0.2,0,0.4-0.1,0.5c-1.3,1.5-5.6,2.1-9.3,2.1
								C85.5,87.9,81.2,87.2,79.9,85.7z M89.2,84.3c-2.8,0-5.5,0.4-7.5,1.2c1.4,0.6,4,1.2,7.5,1.2c3.5,0,6.1-0.5,7.5-1.2
								C94.8,84.7,92.1,84.3,89.2,84.3z"/>
						</g>
					</g>
					<g>
						<path class="st7" d="M111,88.9c-0.6-1.2-2.4-4.3-4.8-4.2c-1.8,0.1-5.4,2.3-6.4,3.6c-1.3,1.9,1.4,2.4,1.4,2.4l3.6-0.2l1.6,0.8
							L111,88.9z"/>
					</g>
					<g>
						<path class="st2" d="M106.4,91.9c0.2,0,0.5-0.1,0.6-0.4c0.2-0.3,0-0.7-0.3-0.9l-1.6-0.8c-0.1,0-0.2-0.1-0.3-0.1l-3.5,0.2
							c-0.4-0.1-1.1-0.4-1.2-0.7c-0.1-0.2,0.1-0.5,0.2-0.7c0.9-1.2,4.3-3.3,5.9-3.4c2-0.1,3.7,3,4.2,3.9c0.2,0.3,0.5,0.4,0.9,0.3
							c0.3-0.2,0.4-0.5,0.3-0.9c-0.7-1.4-2.7-4.7-5.4-4.6c-2,0.1-5.8,2.4-6.9,3.9c-0.6,0.8-0.5,1.5-0.4,1.9c0.4,1.1,2,1.4,2.2,1.5
							c0,0,0.1,0,0.1,0l3.4-0.2l1.4,0.7C106.2,91.9,106.3,91.9,106.4,91.9z"/>
					</g>
					<g>
						<path class="st7" d="M110.2,91.4c0,0-1.7-2.8-4.9-2.7c-1.8,0.1-4.3,2.4-4.2,4c0.1,1.4,1.1,2.8,1.1,2.8l3-1.7l1.6,0.8
							L110.2,91.4z"/>
					</g>
					<g>
						<path class="st2" d="M102.3,96c0.1,0,0.2,0,0.3-0.1l2.7-1.5l1.3,0.6c0.3,0.2,0.7,0,0.9-0.3c0.2-0.3,0-0.7-0.3-0.9l-1.6-0.8
							c-0.2-0.1-0.4-0.1-0.6,0l-2.5,1.4c-0.3-0.5-0.7-1.2-0.7-2c0-0.5,0.3-1.1,0.8-1.7c0.8-0.9,1.9-1.5,2.7-1.6
							c2.7-0.1,4.3,2.4,4.3,2.4c0.2,0.3,0.6,0.4,0.9,0.2c0.3-0.2,0.4-0.6,0.2-0.9c-0.1-0.1-2-3.2-5.4-3c-1.2,0-2.6,0.8-3.6,2
							c-0.8,0.9-1.2,1.9-1.1,2.7c0.1,1.6,1.2,3,1.3,3.1C101.9,95.9,102.1,96,102.3,96z"/>
					</g>
					<g>
						<path class="st7" d="M109.4,95.2c0,0-1.9-2.5-4.1-2.5c-2.2,0-4.2,2-4,3.1c0.1,1.1,0.5,3,1.6,3.2c0.6,0.1,1.1-0.3,1.8-0.7
							L109.4,95.2z"/>
					</g>
					<g>
						<path class="st2" d="M103,99.7c0.6,0,1.2-0.3,1.7-0.7l0.3-0.2c0.3-0.2,0.4-0.6,0.2-0.9c-0.2-0.3-0.6-0.4-0.9-0.2l-0.3,0.2
							c-0.5,0.3-0.9,0.5-1.1,0.5c-0.3,0-0.8-0.8-1-2.6c0-0.2,0.1-0.6,0.5-1c0.6-0.6,1.7-1.4,2.9-1.4c1.5,0,3.1,1.6,3.5,2.2
							c0.2,0.3,0.6,0.3,0.9,0.1c0.3-0.2,0.3-0.6,0.1-0.9c-0.1-0.1-2.1-2.7-4.6-2.7c-1.7,0-3.1,1-3.8,1.8c-0.6,0.7-0.9,1.4-0.8,2
							c0.3,2.3,1,3.6,2.1,3.7C102.9,99.7,103,99.7,103,99.7z"/>
					</g>
					<g>
						<path class="st7" d="M108.6,98.9c0,0-2.3-2.2-3.7-2c-1.1,0.1-2.7,1.7-2.8,2.8c-0.1,0.9,1.1,3.3,2,2.9c0.9-0.4,1.5-1,1.5-1
							l-0.3-0.8L108.6,98.9z"/>
					</g>
					<g>
						<path class="st2" d="M103.9,103.3c0.2,0,0.4-0.1,0.5-0.1c1-0.5,1.7-1.1,1.7-1.2c0.2-0.2,0.2-0.5,0.1-0.7l-0.3-0.8
							c-0.1-0.3-0.5-0.5-0.8-0.3c-0.3,0.1-0.5,0.5-0.3,0.8l0.2,0.4c-0.2,0.2-0.6,0.4-1,0.6c-0.4-0.2-1.2-1.7-1.2-2.3
							c0-0.7,1.3-2.1,2.2-2.2c0.7-0.1,2.3,1,3.1,1.8c0.3,0.2,0.7,0.2,0.9,0c0.2-0.3,0.2-0.7,0-0.9c-0.4-0.4-2.6-2.4-4.2-2.2
							c-1.4,0.2-3.2,2-3.3,3.4c-0.1,0.9,0.8,2.8,1.7,3.4C103.5,103.2,103.7,103.3,103.9,103.3z"/>
					</g>
				</g>
				<g>
					<g>
						<g>
							<path class="st7" d="M46.3,134.2c0,0,1.7,2.1,2.6,3.6c0.9,1.5,0.6,5.9,0.6,6.7c0.1,0.8-0.3,1.2-1,1.2c-0.6,0-1.1-0.5-1.1-1
								c0-0.4-0.4-1.8-0.4-1.8s-0.7,0.9-0.7,1.7c-0.1,1.1-0.2,4.9,0,5.3c0.2,0.4-0.2,1.6-1.1,1.7c-0.9,0.2-3.1-3.2-3.1-3.2
								s-0.8-2.5-1-4.6c-0.2-1,0.6-5.1,1.5-6.9L46.3,134.2z"/>
						</g>
						<g>
							<path class="st2" d="M41.5,148.7c0,0-0.1-0.1-0.1-0.2c0-0.1-0.8-2.6-1-4.7c-0.2-1.3,0.7-5.4,1.6-7.3c0.2-0.3,0.5-0.4,0.8-0.3
								c0.3,0.2,0.4,0.5,0.3,0.8c-0.9,1.8-1.6,5.7-1.5,6.5c0,0,0,0,0,0.1c0.2,1.8,0.8,3.9,1,4.4c0.9,1.4,2.1,2.7,2.5,2.8
								c0.4-0.1,0.6-0.6,0.6-0.8c-0.4-0.9-0.1-5.6-0.1-5.6c0.1-1,0.8-1.9,0.8-2c0.1-0.2,0.4-0.3,0.6-0.2c0.2,0.1,0.4,0.2,0.5,0.5
								c0.1,0.4,0.4,1.5,0.4,1.9c0,0.1,0.3,0.4,0.5,0.4c0.1,0,0.2,0,0.3-0.1c0.1-0.1,0.1-0.2,0.1-0.4c0-0.2,0-0.6,0-1.1
								c0-1.4,0.1-4.4-0.5-5.4c-0.9-1.4-2.6-3.5-2.6-3.5c-0.2-0.3-0.2-0.7,0.1-0.9c0.3-0.2,0.7-0.2,0.9,0.1c0.1,0.1,1.8,2.1,2.7,3.6
								c0.8,1.2,0.8,3.8,0.7,6.1c0,0.4,0,0.8,0,1c0.1,0.8-0.2,1.2-0.5,1.4c-0.2,0.2-0.6,0.5-1.3,0.4c-0.7-0.1-1.3-0.5-1.6-1
								c-0.1,1.5-0.1,3.9,0,4.3c0.2,0.5,0,1.1-0.1,1.3c-0.3,0.7-0.9,1.2-1.5,1.3c0,0-0.1,0-0.2,0C44.3,152.2,43.1,151,41.5,148.7z
								 M45.8,150.2C45.8,150.2,45.8,150.2,45.8,150.2C45.8,150.2,45.8,150.2,45.8,150.2z M45.7,150.1 M46.9,149.5
								C46.9,149.5,46.9,149.5,46.9,149.5C46.9,149.5,46.9,149.5,46.9,149.5z"/>
						</g>
					</g>
					<g>
						<path class="st7" d="M43.3,144.9c0,0,1,4.2,1.8,5.2c0.8,1,1.4,0.5,1.6,0.2c0.2-0.2,0.4-0.8,0.2-1.4c-0.2-0.6-0.7-4.1-0.7-4.6
							c0-0.5,0.7-1.4,0.7-1.4L43.3,144.9z"/>
					</g>
					<g>
						<path class="st2" d="M46.1,151.3c0.6,0,0.9-0.3,1.1-0.5c0.4-0.4,0.7-1.3,0.3-2.1c-0.2-0.5-0.6-3.8-0.6-4.4
							c0-0.1,0.3-0.6,0.6-1c0.2-0.3,0.2-0.7-0.1-0.9c-0.3-0.2-0.7-0.2-0.9,0.1c-0.3,0.3-0.9,1.2-0.9,1.8c0,0.5,0.4,4.1,0.7,4.8
							c0.1,0.4,0,0.7,0,0.7c-0.1,0.1-0.2,0.1-0.2,0.2c-0.1,0-0.2-0.1-0.5-0.3c-0.5-0.6-1.3-3.3-1.7-4.9c-0.1-0.3-0.4-0.6-0.8-0.5
							c-0.3,0.1-0.6,0.4-0.5,0.8c0.2,0.7,1.1,4.4,2,5.4C45.1,151,45.5,151.3,46.1,151.3C46,151.3,46.1,151.3,46.1,151.3z"/>
					</g>
				</g>
			</g>
			<g>
				<g>
					<path class="st13" d="M98.6,72.3c0.4,0,0.8-0.2,0.9-0.6c0,0,0,0,0-0.1c0.2-0.5,0-1.1-0.5-1.3c-0.5-0.2-1.1,0-1.3,0.5
						c0,0.1-0.1,0.2-0.1,0.2c-0.2,0.5,0,1.1,0.5,1.3C98.4,72.2,98.5,72.3,98.6,72.3z"/>
				</g>
				<g>
					<path class="st13" d="M100.4,68.3c-0.4-0.3-0.5-1-0.1-1.4c0.1-0.1,0.1-0.2,0.2-0.2c0.4-0.4,1-0.5,1.4-0.1
						c0.4,0.4,0.5,1,0.1,1.4c-0.1,0.1-0.1,0.1-0.2,0.2c-0.2,0.2-0.5,0.4-0.8,0.4C100.8,68.5,100.6,68.4,100.4,68.3z M103.6,65
						c-0.3-0.4-0.3-1.1,0.2-1.4c0.1-0.1,0.2-0.1,0.2-0.2c0.4-0.3,1.1-0.2,1.4,0.2c0.3,0.4,0.2,1.1-0.2,1.4c-0.1,0.1-0.1,0.1-0.2,0.2
						c-0.2,0.1-0.4,0.2-0.6,0.2C104.1,65.3,103.8,65.2,103.6,65z M107.4,62.4c-0.3-0.5-0.1-1.1,0.4-1.3c0.1,0,0.2-0.1,0.2-0.1
						c0.5-0.3,1.1-0.1,1.3,0.4c0.3,0.5,0.1,1.1-0.4,1.3c-0.1,0-0.2,0.1-0.3,0.1c-0.1,0.1-0.3,0.1-0.5,0.1
						C107.9,62.9,107.6,62.8,107.4,62.4z M111.3,60c-0.4-0.4-0.3-1,0.1-1.4c0.1-0.1,0.1-0.1,0.2-0.2c0.4-0.4,1-0.3,1.4,0.1
						c0.4,0.4,0.3,1-0.1,1.4c-0.1,0.1-0.1,0.1-0.2,0.2c-0.2,0.2-0.4,0.2-0.7,0.2C111.8,60.3,111.5,60.2,111.3,60z M114.5,56.7
						c-0.4-0.3-0.5-0.9-0.2-1.4c0.1-0.1,0.1-0.1,0.2-0.2c0.3-0.4,0.9-0.6,1.4-0.2c0.4,0.3,0.6,0.9,0.2,1.4c-0.1,0.1-0.1,0.2-0.2,0.2
						c-0.2,0.3-0.5,0.4-0.8,0.4C114.9,56.9,114.7,56.9,114.5,56.7z M117,52.8c-0.5-0.2-0.8-0.8-0.6-1.3c0-0.1,0.1-0.2,0.1-0.3
						c0.2-0.5,0.8-0.8,1.3-0.6c0.5,0.2,0.8,0.8,0.6,1.3c0,0.1-0.1,0.2-0.1,0.3c-0.2,0.4-0.5,0.6-0.9,0.6
						C117.2,52.9,117.1,52.9,117,52.8z M102.1,51.2c-0.1-0.1-0.2-0.1-0.3-0.2c-0.5-0.3-0.6-0.9-0.3-1.4c0.3-0.5,0.9-0.6,1.4-0.3
						c0.1,0,0.1,0.1,0.2,0.1c0.5,0.2,0.7,0.8,0.4,1.3c-0.2,0.3-0.5,0.5-0.9,0.5C102.4,51.3,102.2,51.3,102.1,51.2z M118.2,48.4
						c-0.5,0-1-0.5-1-1l0-0.2l0-0.1c0-0.5,0.4-1,1-1c0,0,0,0,0,0c0.5,0,1,0.4,1,1l0,0.1l0,0.2C119.2,48,118.8,48.4,118.2,48.4
						C118.2,48.4,118.2,48.4,118.2,48.4z M99.1,46.8c0-0.1,0-0.2,0-0.3c0-0.5,0.4-1,0.9-1.1c0.5,0,1,0.4,1.1,0.9c0,0.1,0,0.2,0,0.2
						c0.1,0.5-0.3,1-0.8,1.1c0,0-0.1,0-0.1,0C99.6,47.6,99.2,47.3,99.1,46.8z M116.4,43.4c0-0.1-0.1-0.1-0.1-0.2
						c-0.3-0.5-0.1-1.1,0.4-1.3c0.5-0.3,1.1-0.1,1.3,0.4c0.1,0.1,0.1,0.2,0.2,0.3c0.2,0.5,0.1,1.1-0.4,1.3c-0.1,0.1-0.3,0.1-0.4,0.1
						C116.9,44,116.5,43.8,116.4,43.4z M100.6,43.1c-0.4-0.3-0.5-0.9-0.2-1.4c0.1-0.1,0.1-0.2,0.2-0.3c0.3-0.4,1-0.5,1.4-0.1
						c0.4,0.3,0.5,1,0.1,1.4c-0.1,0.1-0.1,0.1-0.1,0.2c-0.2,0.3-0.5,0.4-0.8,0.4C101,43.3,100.8,43.2,100.6,43.1z M113.6,40.6
						c-0.1,0-0.1-0.1-0.2-0.1c-0.5-0.2-0.7-0.8-0.4-1.3c0.2-0.5,0.8-0.7,1.3-0.4c0.1,0,0.2,0.1,0.3,0.2c0.5,0.3,0.6,0.9,0.4,1.3
						c-0.2,0.3-0.5,0.5-0.9,0.5C113.9,40.7,113.8,40.6,113.6,40.6z M104,40c-0.2-0.5,0-1.1,0.5-1.3c0.1,0,0.2-0.1,0.3-0.1
						c0.5-0.2,1.1,0,1.3,0.5c0.2,0.5,0,1.1-0.5,1.3c-0.1,0-0.2,0.1-0.2,0.1c-0.1,0.1-0.3,0.1-0.4,0.1C104.6,40.6,104.2,40.4,104,40z
						 M108.4,38.7c0-0.5,0.4-1,1-1c0.1,0,0.2,0,0.3,0c0,0,0,0,0,0c0.5,0,1,0.4,1,1c0,0.5-0.4,1-1,1c-0.1,0-0.2,0-0.3,0c0,0,0,0,0,0
						C108.9,39.6,108.4,39.2,108.4,38.7z"/>
				</g>
				<g>
					<path class="st13" d="M106.6,50.8c0.2,0,0.4-0.1,0.5-0.2c0,0,0.1-0.1,0.1-0.1c0.4-0.3,0.6-0.9,0.2-1.4
						c-0.3-0.4-0.9-0.6-1.4-0.2l-0.1,0.1c-0.5,0.3-0.6,0.9-0.3,1.4C106,50.7,106.3,50.8,106.6,50.8z"/>
				</g>
			</g>
		</g>
	</g>
</g>
</svg>
