<?xml version="1.0" encoding="utf-8"?>
<!-- Generator: Adobe Illustrator 21.1.0, SVG Export Plug-In . SVG Version: 6.00 Build 0)  -->
<svg version="1.1" id="Layer_1" xmlns="http://www.w3.org/2000/svg" xmlns:xlink="http://www.w3.org/1999/xlink" x="0px" y="0px"
	 viewBox="0 0 140 140" style="enable-background:new 0 0 140 140;" xml:space="preserve">
<style type="text/css">
	.st0{fill:#8C6239;}
	.st1{clip-path:url(#SVGID_2_);}
	.st2{fill:#111111;}
	.st3{fill:#FEE6D5;}
	.st4{fill:#DCB197;}
	.st5{fill:#FFE4B8;}
	.st6{fill:#FFFFFF;}
	.st7{fill:#F9CDE1;}
	.st8{fill:#EB685A;}
	.st9{fill:#EC7978;}
	.st10{fill:#B7957F;}
	.st11{fill:#E097AE;}
</style>
<g>
	<circle class="st0" cx="70" cy="70" r="70"/>
	<g>
		<defs>
			<circle id="SVGID_1_" cx="70" cy="70" r="70"/>
		</defs>
		<clipPath id="SVGID_2_">
			<use xlink:href="#SVGID_1_"  style="overflow:visible;"/>
		</clipPath>
		<g class="st1">
			<g>
				<g>
					<path class="st2" d="M43.5,92.4c-0.4-0.3-1-0.4-1.5-0.1c-0.4,0.2-0.6,0.5-0.7,0.9c-1-0.5-1.9-0.9-2.7-0.9
						c-2.2-0.1-3.8,2.8-4.3,3.9c-1.4,2.3-2,3.7-1.8,6.9c0.3,3.2,1.3,4.8,1.6,5.3c0.6,0.9,6.6,4.5,7.9,5.4c0.2,0.4,0.4,0.8,0.6,1.3
						l-0.7,0.4c0,0,3.7,6.7,5,9.1c2.6,4.6,6.2,8.5,7.7,8.6c1.9,0.1,5.6-5.9,7-8.9c0.7-1.5,1.2-2.8,1.7-3.9c0.2,2.3,1.7,5.3,1.7,5.3
						s2,4.4,1.7,6.3c-0.5,2.8-4.3,10.2-5.4,13.8c-0.1,0.4-0.2,0.8-0.3,1.1c-0.5,1.5-0.9,3-1.3,4.5c0,0,0,0.1,0,0.1h0
						c-0.2,0.8-0.3,1.7-0.3,2.7c-0.2,3.3-0.5,9.8-0.5,10.9c-0.2,8.5-2.9,26.4-3.8,30.5c0.6,0.1,1.4,0.2,2.5,0.2c2.6,0,3-0.5,4.9-0.7
						c0.2,0.8,0.3,1.6,0.5,2.5c0,0,4.2,9.8,6.1,15.7c1.2,3.8,1.9,7.2,2.3,9.6l0.4,3.5c-0.3,0.7-1.6,3.9-3,7.2
						c-0.3,0.6-0.6,1.3-0.9,1.9c-1,0.5-1.7,1.2-2.3,1.9c-0.5,0.6-0.5,2-0.5,2c1,0,9.9-0.5,9.9-0.5l0-0.1c0,0,0.1-0.1,0.1-0.1
						c0,0,0,0,0.1,0c0,0,0,0,0.1-0.1c0.4-0.4,0.7-1,1-1.7l0,1.5c0,0.4,0.3,0.7,0.7,0.7h0.3c0.8,0,4,0,8.7,0h0.6
						c0.5,0,0.5-2.1-0.7-2.6l0,0c-1.2-1.9-3.3-4.4-4.7-6.5l0.3-1.6l0,0l3.1-17.4c0.6-4.2,0.5-6.8,0.6-8.8c0.1-2-0.2-4.1-0.4-6.6
						c1.1-0.2,1.8-0.5,3.8-0.5c3.1,0,3.1,0.7,6.2,0.7c1.1,0,1.9-0.1,2.5-0.2c-0.9-4-3.6-22-3.8-30.5c0-1.1-0.3-7.6-0.5-10.9
						c0-1-0.1-1.9-0.3-2.7h0c0,0,0,0,0-0.1c-0.3-1.5-0.8-3-1.3-4.5c-0.1-0.4-0.2-0.7-0.3-1.1c-1.1-3.6-4.9-11.1-5.4-13.8
						c-0.3-1.9,1.7-6.3,1.7-6.3s0.3-0.5,0.6-1.3c0.6,4.1,1.3,8.4,1.5,9.9c0.5,3.5,4.8,18,4.8,18l1-0.2l0.2,0.6c0,0-0.3,0.2-0.5,1.8
						c-0.2,1.6,1.7,5.1,1.9,5.8c0.2,0.7,0.7,0.9,1.2,0.5c0.4-0.3,0.6-0.9,0.5-1.3c-0.1-0.3-0.4-1.6-0.4-1.6s0.8,0.4,1.1,1.1
						c0.3,0.8,1,3.3,1,3.9c0,0.6,0.4,1,0.6,1.1c0.1,0,0.3,0.1,0.5,0c0.3,0.3,0.7,0.5,1.1,0.3c0.7-0.3,1.2-4,1.2-4s-0.3-2.4-0.8-4.2
						c-0.2-0.9-2.4-2.8-3.6-3.8l-0.2-1l0.8-0.1c0,0-2.9-10.6-4-17.2c-0.8-4.7-1.5-19.8-1.6-22.6c0-0.2,0-0.3,0-0.4
						c-0.1-0.3-0.3-0.6-0.6-1c1.5-1,4.2-1.7,5.5-3.9c1.8-2.9-1.5-5.7,0.2-9.5c0.8-1.7,2.4-6.2,3.9-10.7c0.2,0.1,0.5,0.2,0.7,0.2
						c1,0.1,1.8-0.6,1.9-1.6c0.1-0.6-0.2-1.1-0.6-1.5c1.8-1,3.1-3.1,3.3-5.7c0.2-1.9-0.3-3.7-1.2-5c0.8-6,0.8-12.7-0.1-18
						C106,40,92.1,31.7,82.1,30.6C71.2,29.4,67.5,34,67.5,34s-2.5-0.3-6.6,3.2c-3.5,2.9-5.8,8-6.9,10.8c-2.2,5.3-3.6,12.8-3.9,19.7
						c-1.1,1.1-1.9,2.8-2,4.7c-0.2,2.6,0.7,4.9,2.3,6.2c-0.5,0.3-0.8,0.8-0.8,1.3c-0.1,1,0.6,1.8,1.6,1.9c0.4,0,0.7,0,1-0.2
						c0.4,2.3,0.9,4.6,1.2,6.4C47.9,88.2,43.6,90.1,43.5,92.4z M76.3,195.3L76.3,195.3c0.2,0,0.3,0,0.4,0l0,22.7
						c-0.3-5.7-0.8-13.5-1.5-16.2c-0.7-2.6-2.2-4.8-3.1-6C73.4,195.6,74,195.3,76.3,195.3z M54.1,114.6c1,0,1.9,0,2.7-0.1
						c-0.7,2.1-1.6,4.9-2.7,7.8l-4.4-8C50.9,114.4,52.4,114.6,54.1,114.6z"/>
				</g>
				<g>
					<path class="st2" d="M65.1,240.9c-0.3,0-0.7-0.1-0.9-0.4c-0.3-0.3-0.4-0.6-0.4-1c0-0.4,0.1-2,0.8-2.9c0.5-0.6,1.3-1.4,2.3-2
						c0.3-0.5,0.5-1,0.7-1.4c1.3-3.1,2.4-5.8,2.8-6.9l-0.3-3.1c-0.3-2.2-1-5.6-2.2-9.3c-1.9-5.8-6-15.5-6.1-15.6
						c0-0.1-0.1-0.2-0.1-0.2c-0.1-0.4-0.2-0.8-0.3-1.2c-0.1,0-0.3,0.1-0.4,0.1c-0.8,0.2-1.7,0.4-3.4,0.4c-1.3,0-2.2-0.1-2.8-0.3
						c-0.4-0.1-0.7-0.3-0.9-0.6s-0.3-0.7-0.2-1c0.9-4.2,3.6-22.1,3.8-30.2c0-1.1,0.3-7.6,0.5-11c0-1.1,0.1-2.1,0.3-3h0
						c0,0,0-0.1,0-0.1c0.3-1.4,0.7-2.9,1.3-4.6c0.1-0.4,0.2-0.7,0.3-1.1c0.5-1.7,1.5-4,2.6-6.4c1.2-2.8,2.5-5.9,2.8-7.2
						c0.2-1-0.9-3.8-1.6-5.5c-0.1-0.2-0.4-0.9-0.8-1.8c0,0.1-0.1,0.2-0.1,0.3c0,0.1-4.6,9.7-8.2,9.7c0,0,0,0-0.1,0
						c-2.8-0.1-7-6.1-8.8-9.2c-1.4-2.4-4.9-8.9-5.1-9.2c-0.2-0.3-0.2-0.7-0.1-1c0.1-0.2,0.1-0.3,0.3-0.5c-0.4-0.2-0.9-0.6-1.5-1
						c-4.1-2.6-5.9-3.8-6.4-4.5c-0.6-0.8-1.6-2.7-1.9-6c-0.3-3.4,0.4-5.1,1.9-7.7c0.9-1.8,2.8-4.7,5.6-4.6c0.7,0,1.4,0.3,2.1,0.5
						c0.2-0.2,0.5-0.4,0.7-0.4c0.4-0.2,0.8-0.2,1.2-0.2c1.1-1.9,4-3.6,9.1-4.1c-0.2-1.1-0.4-2.3-0.7-3.6c0,0,0,0,0,0
						c-1.7-0.1-3-1.7-2.8-3.4c0-0.4,0.2-0.8,0.3-1.2c-1.3-1.6-2-4-1.8-6.4c0.2-2,0.9-3.7,2.1-5.1c0.4-6.9,1.9-14.4,4-19.6
						c1.1-2.9,3.6-8.1,7.3-11.3c3.3-2.8,5.7-3.4,6.9-3.5c1.6-1.5,6.3-4.4,15.3-3.4c5.7,0.6,11.9,3.3,16.7,7.2
						c4.1,3.3,9.1,9.2,10.2,18.1c0.8,5.2,0.9,11.9,0.1,17.9c0.9,1.5,1.3,3.4,1.1,5.4c-0.2,2.4-1.3,4.6-2.9,5.9
						c0.1,0.4,0.2,0.8,0.1,1.2c-0.1,0.8-0.5,1.6-1.1,2.1c-0.6,0.5-1.3,0.7-2,0.7c-1.8,5-3,8.2-3.6,9.6c-0.7,1.5-0.3,2.8,0,4.2
						c0.4,1.6,0.9,3.5-0.3,5.4c-1.2,1.9-3.1,2.8-4.6,3.6c-0.1,0-0.1,0.1-0.2,0.1c0,0,0,0.1,0,0.1c0.1,0.3,0.1,0.6,0.1,0.9
						c0.1,3.2,0.8,17.7,1.6,22.3c1,6.4,3.9,17,3.9,17.1c0.1,0.4,0,0.8-0.2,1.1c0,0,0,0,0,0c2,1.7,3,2.8,3.3,3.8
						c0.6,1.9,0.9,4.3,0.9,4.4c0,0.1,0,0.2,0,0.3c-0.6,4.6-1.6,4.9-2.1,5.1c-0.6,0.2-1.4,0.1-2-0.2c-0.2,0-0.4-0.1-0.5-0.1
						c-0.9-0.3-1.5-1.2-1.6-2.3c0-0.1-0.1-0.5-0.2-1c-0.6,0.4-1.2,0.5-1.8,0.3c-0.6-0.2-1.1-0.7-1.4-1.5c0-0.1-0.2-0.4-0.3-0.7
						c-0.3-0.6-0.6-1.2-0.8-1.9c0.2,3,0.3,6.1,0.3,6.8c0.2,8.1,2.8,26,3.8,30.2c0.1,0.4,0,0.7-0.2,1s-0.5,0.5-0.9,0.6
						c-0.6,0.1-1.5,0.3-2.8,0.3c-1.7,0-2.6-0.2-3.4-0.4c-0.8-0.2-1.4-0.3-2.8-0.3c-1.2,0-1.8,0.1-2.4,0.2c0,0.4,0.1,0.8,0.1,1.1
						c0.1,1.6,0.2,3.1,0.2,4.5c0,0.4,0,0.9,0,1.4c0,1.9-0.1,4.2-0.6,7.6c0,0,0,0,0,0l-3.1,17.2c0,0.1,0,0.2,0,0.3l-0.2,1
						c0.6,0.9,1.4,1.9,2.1,2.9c0.8,1,1.5,1.9,2.1,2.8c1.2,0.7,1.6,2.3,1.4,3.5c-0.2,1.1-1,1.5-1.6,1.5H77c-0.5,0-0.9-0.2-1.3-0.4
						c-0.2,0.1-0.4,0.2-0.7,0.2C75.1,240.4,66.2,240.8,65.1,240.9C65.1,240.9,65.1,240.9,65.1,240.9z M77.6,238.6L77.6,238.6
						C77.6,238.6,77.6,238.6,77.6,238.6z M64.3,197.4c0.5,1.2,4.3,10.1,6.1,15.7c1.3,4,2,7.5,2.3,9.8c0,0,0,0,0,0l0.4,3.5
						c0,0.2,0,0.5-0.1,0.7c-0.3,0.7-1.6,3.8-2.9,7.2c-0.2,0.6-0.6,1.3-1,2.1c-0.1,0.2-0.3,0.4-0.6,0.6c-0.6,0.3-1.2,0.8-1.6,1.3
						c2.4-0.1,6.2-0.3,7.6-0.3c0.1-0.1,0.3-0.4,0.6-1.2c0.2-0.6,0.9-0.9,1.5-0.8c0.6,0.1,1.1,0.7,1.1,1.3l0,0.9h7.8
						c-0.2-0.1-0.4-0.3-0.6-0.5c-0.5-0.8-1.3-1.9-2.1-2.9c-0.9-1.2-1.8-2.4-2.6-3.5c-0.2-0.3-0.3-0.6-0.2-1l0.2-1.3
						c0-0.1,0-0.2,0-0.2l3.1-17.4c0.5-3.2,0.5-5.4,0.6-7.2c0-0.5,0-1,0-1.4c0.1-1.3-0.1-2.6-0.2-4.2c-0.1-0.7-0.1-1.5-0.2-2.3
						c0-0.7,0.4-1.3,1.1-1.4c0.2,0,0.5-0.1,0.7-0.1c0.8-0.2,1.7-0.4,3.4-0.4c1.7,0,2.6,0.2,3.4,0.4c0.8,0.2,1.4,0.3,2.8,0.3
						c0.3,0,0.6,0,0.9,0c-1.1-6-3.4-21.6-3.6-29.3c0-1.1-0.3-7.6-0.5-10.9c0,0,0,0,0,0c0-1-0.1-1.8-0.3-2.5c0,0,0,0,0,0l0,0
						c-0.3-1.4-0.7-2.8-1.2-4.4c0,0,0,0,0,0c-0.1-0.4-0.2-0.7-0.3-1.1c-0.5-1.5-1.5-3.9-2.5-6.1c-1.4-3.2-2.7-6.2-3-7.9
						c-0.4-2.2,1.5-6.3,1.8-7.1c0,0,0-0.1,0-0.1c0,0,0.3-0.5,0.6-1.2c0.2-0.6,0.8-0.9,1.4-0.8c0.6,0.1,1.1,0.5,1.2,1.1
						c0.8,5.3,1.3,8.7,1.5,9.9c0.4,2.8,3.4,13.2,4.4,16.6c0.6,0,1.1,0.3,1.3,0.9l0.2,0.6c0.1,0.4,0.1,0.9-0.2,1.2
						c0,0.1-0.1,0.4-0.2,1.2c-0.1,0.5,0.3,1.6,0.7,2.6c0.1-0.2,0.2-0.3,0.4-0.4c0.4-0.3,1-0.3,1.4-0.1c0.2,0.1,1.2,0.7,1.7,1.7
						c0,0.1,0.1,0.1,0.1,0.2c0,0,1,3.1,1.1,4.1c0.1,0,0.2,0,0.3,0.1c0.2-0.6,0.4-1.5,0.5-2.4c-0.1-0.6-0.3-2.4-0.8-3.8
						c0,0,0-0.1,0-0.1c-0.3-0.6-2.2-2.2-2.9-2.9l-0.3-0.3c-0.2-0.2-0.4-0.4-0.4-0.7l-0.2-1c-0.1-0.4,0-0.7,0.2-1
						c0.1-0.1,0.2-0.2,0.2-0.3c-0.8-3-2.8-10.8-3.6-16.1c-0.8-4.8-1.5-19.8-1.6-22.7c0-0.1,0-0.1,0-0.2c0-0.1-0.1-0.2-0.3-0.4
						c-0.3-0.3-0.4-0.7-0.4-1.1c0-0.4,0.3-0.8,0.6-1c0.5-0.3,1-0.6,1.6-0.9c1.3-0.7,2.7-1.3,3.5-2.6c0.6-0.9,0.4-1.8,0-3.3
						c-0.4-1.6-0.9-3.7,0.1-6c0.6-1.4,2-5,3.9-10.5c0.1-0.4,0.4-0.7,0.8-0.8c0.4-0.1,0.8-0.1,1.2,0.1c0.1,0,0.1,0.1,0.2,0.1
						c0.1,0,0.2,0,0.3-0.1c0.1,0,0.1-0.1,0.1-0.3c0-0.2-0.1-0.3-0.1-0.3c-0.3-0.3-0.5-0.7-0.5-1.2c0-0.4,0.3-0.8,0.7-1
						c1.4-0.8,2.5-2.6,2.6-4.6c0.1-1.5-0.2-3-1-4.1c-0.2-0.3-0.3-0.6-0.2-0.9c0.8-5.9,0.8-12.5-0.1-17.6c0,0,0,0,0-0.1
						c-0.9-8-5.5-13.3-9.2-16.3C92.8,35,87.1,32.5,81.9,32c-7.8-0.9-12.1,1.5-13.3,2.9c-0.3,0.4-0.7,0.6-1.2,0.5
						c-0.2,0-2.3,0.1-5.6,2.9c-3.2,2.8-5.5,7.6-6.5,10.2c-2.1,5.1-3.5,12.4-3.8,19.2c0,0.3-0.1,0.6-0.4,0.9
						c-0.9,0.9-1.5,2.4-1.7,3.9c-0.2,2,0.5,4,1.8,5c0.3,0.3,0.5,0.7,0.5,1.1c0,0.4-0.3,0.8-0.7,1.1c-0.1,0-0.2,0.1-0.2,0.3
						c0,0.2,0.1,0.4,0.4,0.4c0.1,0,0.2,0,0.2,0c0.4-0.2,0.8-0.2,1.2,0c0.4,0.2,0.7,0.5,0.8,1c0.5,2.6,0.9,4.7,1.2,6.4
						c0.1,0.4,0,0.8-0.3,1.1c-0.2,0.3-0.6,0.5-1,0.5c-5.2,0.1-8.5,1.9-8.5,3.1c0,0.5-0.3,0.9-0.7,1.1c-0.4,0.2-0.9,0.2-1.3,0
						c-0.1-0.1-0.2-0.1-0.3-0.1c0,0,0,0.1,0,0.1c-0.1,0.4-0.4,0.7-0.8,0.8c-0.4,0.2-0.8,0.1-1.1-0.1c-1-0.5-1.7-0.7-2.1-0.8
						c0,0,0,0,0,0c-1,0-2.3,1.6-3.1,3.1c0,0,0,0.1-0.1,0.1c-1.3,2.1-1.8,3.3-1.6,6.1c0.2,2.7,1,4.1,1.4,4.6c0.6,0.6,4,2.8,5.7,3.8
						c0.9,0.6,1.6,1,2,1.3c0.2,0.1,0.4,0.3,0.5,0.6c0.2,0.4,0.4,0.8,0.6,1.3c0.2,0.5,0.1,1-0.2,1.4c1.1,2,3.4,6.2,4.4,8
						c2.7,4.7,5.7,7.6,6.6,7.9c1.2-0.4,4.3-4.8,5.7-8.1c0.6-1.3,1.2-2.6,1.7-3.8c0.2-0.6,0.8-0.9,1.5-0.8c0.6,0.1,1.1,0.6,1.1,1.2
						c0.1,1.7,1.2,4,1.6,4.7c0,0,0,0.1,0,0.1c0.4,0.8,2.2,4.9,1.8,7.1c-0.3,1.7-1.6,4.7-3,7.9c-1,2.3-2,4.6-2.5,6.1
						c-0.1,0.4-0.2,0.8-0.3,1.1c0,0,0,0,0,0c-0.5,1.5-0.9,3-1.2,4.3l0,0.1c-0.1,0.7-0.2,1.5-0.3,2.5c0,0,0,0,0,0
						c-0.2,3.3-0.5,9.8-0.5,10.9c-0.2,7.7-2.4,23.3-3.6,29.3c0.3,0,0.6,0,0.9,0c1.4,0,2.1-0.1,2.8-0.3c0.5-0.1,1.1-0.3,2-0.3
						c0.7-0.1,1.3,0.4,1.4,1.1C64,195.9,64.1,196.7,64.3,197.4z M102,163.1L102,163.1L102,163.1z M98.4,160.2
						C98.4,160.2,98.4,160.2,98.4,160.2C98.4,160.2,98.4,160.2,98.4,160.2z M101.9,156.7C101.9,156.7,101.9,156.7,101.9,156.7
						C101.9,156.7,101.9,156.7,101.9,156.7z M96.4,153.9C96.4,153.9,96.4,153.9,96.4,153.9C96.4,153.9,96.4,153.9,96.4,153.9z
						 M96.4,153.9C96.4,153.9,96.4,153.9,96.4,153.9C96.4,153.9,96.4,153.9,96.4,153.9z M96.4,153.9
						C96.4,153.9,96.4,153.9,96.4,153.9C96.4,153.9,96.4,153.9,96.4,153.9z M96.4,153.9L96.4,153.9L96.4,153.9z M87.5,129.6
						c-0.3,1-0.5,1.8-0.4,2.3c0.1,0.8,0.7,2.2,1.3,3.8c-0.1-0.4-0.1-0.8-0.2-1.1C88.2,133.8,87.9,132.1,87.5,129.6z M76.7,219.4
						c-0.7,0-1.3-0.6-1.3-1.3c-0.4-8.2-0.9-13.9-1.5-15.9c-0.7-2.4-2.1-4.5-2.9-5.5c-0.3-0.4-0.4-0.9-0.2-1.3
						c0.2-0.4,0.6-0.8,1.1-0.8c0.4-0.1,0.7-0.1,1-0.2c0.8-0.2,1.7-0.4,3.4-0.4h0c0.2,0,0.3,0,0.4,0c0.7,0,1.3,0.6,1.3,1.3l0,22.7
						C78,218.7,77.5,219.3,76.7,219.4C76.7,219.4,76.7,219.4,76.7,219.4z M74.3,196.8c0.3,0.5,0.7,1.1,1,1.8l0-1.9
						C74.9,196.7,74.6,196.7,74.3,196.8z M54.1,123.5c-0.5,0-0.9-0.3-1.2-0.7l-4.4-8c-0.3-0.5-0.2-1,0.1-1.4
						c0.3-0.4,0.8-0.6,1.3-0.5c1.1,0.2,2.6,0.3,4.2,0.3c0.9,0,1.8,0,2.6-0.1c0.5,0,0.9,0.1,1.2,0.5c0.3,0.4,0.4,0.8,0.2,1.3
						l-0.2,0.6c-0.7,2.1-1.6,4.6-2.5,7.2C55.1,123.2,54.7,123.5,54.1,123.5C54.1,123.5,54.1,123.5,54.1,123.5z M52.1,115.9l1.7,3.1
						c0.4-1.1,0.7-2.1,1.1-3C53.9,115.9,53,115.9,52.1,115.9z"/>
				</g>
			</g>
			<g>
				<g>
					<path class="st2" d="M106.2,49c2.4,6,2.7,17.2,1.1,26.2c0,0-7.9,26.7-31.1,24.7S50.1,70.1,50.1,70.1c0-9.1,2.3-20.1,5.7-25.6v0
						c3.8-5.9,10.6-13.9,26.5-12.5C98.2,33.5,103.5,42.6,106.2,49L106.2,49z"/>
					<path class="st2" d="M78.8,100.7c-0.8,0-1.7,0-2.5-0.1c-9.7-0.9-17.5-6.4-22.4-16c-3.7-7.2-4.5-14-4.5-14.3c0,0,0-0.1,0-0.1
						c0-9.6,2.4-20.5,5.8-25.9c4.4-6.7,11.4-14.2,27.2-12.8c15.7,1.4,21.4,10,24.5,17.3c0,0,0,0,0,0c2.3,5.9,2.8,17.1,1.2,26.5
						c0,0,0,0,0,0.1c-0.1,0.3-2.1,6.9-6.9,13.3C95.2,96.6,87.5,100.7,78.8,100.7z M50.7,70.1c0.1,0.5,0.9,7.1,4.4,13.9
						c4.8,9.3,11.9,14.4,21.3,15.2c9.4,0.8,17.3-3,23.6-11.3c4.6-6,6.5-12.3,6.7-12.9c1.6-9.1,1.1-20.1-1.1-25.7
						c-3-7-8.4-15.2-23.4-16.5c-15-1.3-21.7,5.8-25.9,12.2C53.1,50.1,50.7,60.9,50.7,70.1z"/>
				</g>
				<g>
					<path class="st2" d="M50.1,70.1c0,0,3,17.2,4,21.3c1,4.1-2.7,5.6-1.5,8.9c1.2,3.3,5.2,4.6,5.5,6.5c0.3,1.9,3,6.5,8.1,6.4
						c5.1-0.1,5.7,2.2,8.8,2.5c3,0.4,4-1.6,9-0.3c5,1.3,8.3-2.5,9-4.2c0.7-1.8,4.8-2.1,6.5-5c1.8-2.9-1.5-5.7,0.2-9.5
						c1.7-3.8,7.8-21.7,7.8-21.7L50.1,70.1z"/>
				</g>
				<g>
					<path class="st2" d="M75.7,116.6c-0.3,0-0.6,0-0.9-0.1c-1.3-0.2-2.3-0.7-3.1-1.2c-1.3-0.7-2.6-1.4-5.5-1.4c0,0-0.1,0-0.1,0
						c-5.6,0-8.3-5.1-8.6-7c-0.1-0.6-1-1.3-1.9-2.1c-1.3-1.1-2.9-2.4-3.6-4.3c-0.7-1.9,0-3.3,0.6-4.6c0.6-1.3,1.2-2.5,0.8-4.3
						c-1-4.1-3.9-20.6-4-21.3c-0.1-0.4,0.2-0.7,0.5-0.8c0.4-0.1,0.7,0.2,0.8,0.5c0,0.2,3,17.2,4,21.2c0.6,2.3-0.2,3.9-0.9,5.3
						c-0.6,1.2-1.1,2.2-0.6,3.6c0.6,1.6,2,2.7,3.2,3.7c1.2,1,2.2,1.8,2.4,2.9c0.3,1.5,2.6,5.9,7.3,5.9c0,0,0.1,0,0.1,0
						c3.2,0,4.8,0.8,6.2,1.6c0.9,0.5,1.6,0.9,2.7,1c1.1,0.1,1.9-0.1,2.8-0.3c1.5-0.4,3.2-0.8,6.3,0.1c4.6,1.3,7.7-2.4,8.2-3.8
						c0.4-1.1,1.5-1.6,2.8-2.3c1.3-0.7,2.9-1.4,3.7-2.8c0.7-1.2,0.4-2.4,0-3.8c-0.4-1.6-0.9-3.5,0.1-5.6c1.7-3.7,7.7-21.5,7.7-21.6
						c0.1-0.4,0.5-0.5,0.9-0.4c0.4,0.1,0.5,0.5,0.4,0.9c-0.2,0.7-6.1,18-7.8,21.8c-0.8,1.7-0.4,3.1,0,4.7c0.4,1.6,0.8,3.2-0.2,4.9
						c-1.1,1.7-2.9,2.6-4.3,3.3c-1,0.5-2,1-2.2,1.5c-0.7,1.8-4.2,6.2-9.8,4.7c-2.8-0.8-4.2-0.4-5.6,0
						C77.4,116.4,76.6,116.6,75.7,116.6z"/>
				</g>
				<g>
					<path class="st2" d="M107.8,55.5c-1.3-15.3-15.5-23.8-25.7-24.9C71.2,29.4,67.5,34,67.5,34s-2.5-0.3-6.6,3.2
						c-5,4.2-7.6,12.8-7.6,12.8L107.8,55.5z"/>
				</g>
				<g>
					<path class="st2" d="M107.8,56.2c-0.3,0-0.6-0.3-0.7-0.6c-0.7-8.5-5.4-14.1-9.3-17.3c-4.5-3.8-10.5-6.4-15.9-7
						c-5.4-0.6-8.9,0.3-10.9,1.2c-2.1,0.9-3,2-3.1,2c-0.1,0.2-0.4,0.3-0.6,0.2c0,0-2.3-0.1-6.1,3.1c-4.8,4.1-7.4,12.4-7.4,12.5
						c-0.1,0.4-0.5,0.6-0.8,0.4c-0.4-0.1-0.6-0.5-0.4-0.8c0.1-0.4,2.8-8.8,7.9-13.1c3.5-2.9,5.9-3.4,6.8-3.4
						c1.1-1.1,5.3-4.5,14.9-3.4c5.7,0.6,11.9,3.4,16.6,7.3c4,3.4,9,9.3,9.7,18.2C108.5,55.9,108.2,56.2,107.8,56.2
						C107.8,56.2,107.8,56.2,107.8,56.2z"/>
				</g>
				<g>
					<g>
						<path class="st3" d="M60.6,155.7c-0.5,11.8-1.2,25.6,2.4,42.1c0,0,4.2,9.8,6.1,15.7c2.3,7.2,2.6,13,2.6,13l5.2-1.8
							c0,0-0.6-18.4-1.8-22.9c-1.1-4-4-7-4-7l3.5-34.8L60.6,155.7z"/>
						<path class="st2" d="M71.7,227.2c-0.1,0-0.3,0-0.4-0.1c-0.2-0.1-0.3-0.3-0.3-0.5c0-0.1-0.3-5.9-2.6-12.9
							c-1.9-5.8-6-15.5-6.1-15.6c0,0,0-0.1,0-0.1c-3.6-16.6-3-30.2-2.4-42.3c0-0.2,0.1-0.4,0.3-0.5c0.2-0.1,0.4-0.2,0.6-0.1
							l14.1,4.3c0.3,0.1,0.5,0.4,0.5,0.7l-3.5,34.5c0.7,0.8,3,3.6,4,7.1c1.2,4.5,1.8,22.3,1.8,23c0,0.3-0.2,0.6-0.5,0.7l-5.2,1.8
							C71.9,227.2,71.8,227.2,71.7,227.2z M63.6,197.6c0.4,0.8,4.3,10.1,6.1,15.7c1.8,5.6,2.4,10.4,2.6,12.3l3.9-1.3
							c-0.1-3-0.7-18.3-1.7-22.2c-1-3.8-3.8-6.7-3.9-6.7c-0.1-0.1-0.2-0.3-0.2-0.5l3.5-34.3l-12.7-3.9
							C60.7,168.3,60.2,181.5,63.6,197.6z"/>
					</g>
					<g>
						<path class="st3" d="M76.8,222.1l0,2.6c1.1,2.1,3.1,5.1,2.4,6.1c-0.5,0.7-1.7,1.2-1.7,1.2c-0.6,0.5-1.1,6.9-2.9,7
							c-1.9,0.1-1.9,0.1-8.4,0.4c-1.2,0.1,1.4-3,2.5-5.7c1.4-3.3,2.7-6.5,3-7.2l-0.4-3.5L76.8,222.1z"/>
					</g>
					<g>
						<path class="st2" d="M66.3,240.1c-0.5,0-0.7-0.3-0.8-0.4c-0.4-0.7,0.1-1.5,1.1-3.2c0.6-1,1.2-2.1,1.6-3.1
							c1.3-3.3,2.5-6.1,2.9-7l-0.4-3.3c0-0.4,0.2-0.7,0.6-0.7c0.4,0,0.7,0.2,0.7,0.6l0.4,3.5c0,0.1,0,0.2,0,0.3
							c-0.3,0.7-1.6,3.8-2.9,7.2c-0.5,1.1-1.1,2.3-1.7,3.3c-0.3,0.5-0.6,1.1-0.9,1.5l7.8-0.3c0.6,0,1.3-3.2,1.6-4.3
							c0.4-1.6,0.5-2.3,0.9-2.6c0.1,0,0.1-0.1,0.2-0.1c0.4-0.1,1.1-0.5,1.3-0.9c0.3-0.5-1.2-3.1-1.8-4.3c-0.2-0.4-0.5-0.8-0.7-1.2
							c-0.1-0.1-0.1-0.2-0.1-0.3l0-2.6c0-0.4,0.3-0.7,0.7-0.7c0,0,0,0,0,0c0.4,0,0.7,0.3,0.7,0.7l0,2.4c0.2,0.3,0.4,0.7,0.6,1
							c1.5,2.7,2.5,4.5,1.8,5.6c-0.5,0.7-1.4,1.2-1.8,1.4c-0.1,0.3-0.3,1.2-0.5,1.8c-0.5,2.5-1.2,5.3-2.8,5.3L66.3,240.1
							C66.3,240.1,66.3,240.1,66.3,240.1z"/>
					</g>
					<g>
						<path class="st4" d="M77.9,227.1l-0.1,2.2c0,0-2.1,4.8-3.2,7.1c-1-0.5-2.6-1.1-4.2-1.2c-2.4-0.3-3.9,1.2-4.9,2.3
							c-0.5,0.6-0.5,2-0.5,2c1,0,9.9-0.5,9.9-0.5l0-0.1c1.6-0.9,2.5-6.9,2.5-6.9s1.2-0.4,1.7-1.2C79.8,229.9,78.9,229,77.9,227.1z"
							/>
						<path class="st2" d="M65.1,240.2c-0.2,0-0.3-0.1-0.5-0.2c-0.1-0.1-0.2-0.3-0.2-0.5c0-0.3,0-1.7,0.7-2.5c1-1.2,2.7-2.9,5.4-2.5
							c1.3,0.2,2.7,0.6,3.8,1c1-2.2,2.5-5.7,2.8-6.4l0.1-2.1c0-0.3,0.2-0.6,0.5-0.6c0.3-0.1,0.6,0.1,0.7,0.3
							c0.2,0.5,0.5,0.9,0.7,1.2c0.7,1.2,1.3,2.2,0.6,3.2c-0.4,0.6-1.2,1.1-1.6,1.3c-0.3,1.5-1.1,5.7-2.6,6.9
							c-0.1,0.2-0.3,0.3-0.6,0.3C75,239.7,66.1,240.1,65.1,240.2C65.1,240.2,65.1,240.2,65.1,240.2z M69.8,235.8
							c-1.7,0-2.9,1-3.7,2.1c-0.1,0.2-0.2,0.5-0.3,0.9c2.1-0.1,7.5-0.3,8.9-0.4c0,0,0,0,0,0c0.6-0.4,1.3-2.4,1.8-4.6
							c-0.5,1.1-1,2.1-1.3,2.9c-0.1,0.2-0.2,0.3-0.4,0.4c-0.2,0.1-0.4,0.1-0.5,0c-1-0.5-2.5-1-4-1.2C70.2,235.8,70,235.8,69.8,235.8
							z M78.4,229.4c0,0,0,0.1,0,0.1c0,0-0.3,0.7-0.8,1.7c0.4-0.2,0.8-0.5,1-0.8C78.8,230.3,78.7,230,78.4,229.4z M77.8,229.3
							L77.8,229.3L77.8,229.3z"/>
					</g>
				</g>
				<g>
					<path class="st3" d="M92.8,151.6c1.1,12.1-8,36.4-8,41.5c0,3.7,0.5,6.7,0.4,9.3c-0.1,2,0,4.6-0.6,8.8L81.1,231h-4.4l0-70.5
						L92.8,151.6z"/>
					<path class="st2" d="M81.1,231.7h-4.4c-0.4,0-0.7-0.3-0.7-0.7l0-70.5c0-0.2,0.1-0.5,0.3-0.6l16.1-9c0.2-0.1,0.4-0.1,0.6,0
						c0.2,0.1,0.3,0.3,0.4,0.5c0.7,7.9-2.8,20.8-5.4,30.3c-1.4,5.1-2.6,9.6-2.6,11.3c0,1.8,0.1,3.4,0.3,4.9c0.1,1.6,0.2,3,0.2,4.4
						c0,0.4,0,0.9,0,1.4c0,1.9-0.1,4.2-0.6,7.5l-3.5,19.8C81.7,231.5,81.5,231.7,81.1,231.7z M77.4,230.4h3.2l3.4-19.2
						c0.5-3.2,0.5-5.5,0.6-7.3c0-0.5,0-1,0-1.4c0.1-1.3-0.1-2.7-0.2-4.2c-0.1-1.5-0.3-3.2-0.3-5c0-1.9,1.2-6.2,2.7-11.7
						c2.4-8.9,5.7-21,5.4-28.8L77.4,161L77.4,230.4z"/>
				</g>
				<g>
					<path class="st3" d="M76.7,228.6l0,1.5c-0.1,0.9-0.2,4-0.4,6.6c0,0,0.9,2.5,1.1,2.5c0.8,0,4,0,8.7,0c2.8,0-2.3-5.3-4.8-9
						l0.3-1.6L76.7,228.6z"/>
				</g>
				<g>
					<path class="st2" d="M86,240h-8.7c-0.5,0-0.7,0-1.7-3c0-0.1,0-0.2,0-0.3c0.1-1.4,0.2-2.8,0.2-4c0.1-1.2,0.1-2.1,0.2-2.6l0-1.5
						c0-0.4,0.3-0.7,0.7-0.7c0.4,0,0.7,0.3,0.7,0.7l0,1.5c0,0,0,0.1,0,0.1c-0.1,0.4-0.1,1.4-0.2,2.5c-0.1,1.2-0.1,2.6-0.2,4
						c0.3,0.7,0.6,1.5,0.7,1.9H86c0.1,0,0.1,0,0.1,0c-0.1-0.7-1.8-3-2.9-4.5c-0.9-1.2-1.8-2.4-2.5-3.5c-0.1-0.1-0.1-0.3-0.1-0.5
						l0.3-1.6c0.1-0.4,0.4-0.6,0.8-0.5c0.4,0.1,0.6,0.4,0.5,0.8l-0.2,1.3c0.7,1,1.5,2.1,2.3,3.2c2.4,3.2,3.6,4.9,3.1,6
						C87.2,239.6,86.9,240,86,240z"/>
				</g>
				<g>
					<path class="st4" d="M86,236.7c0,0-5.5-1.9-7-1.4c-1.5,0.4-2.7,1.5-2.7,1.5l0,1.8c0,0.4,0.3,0.7,0.7,0.7h9.7
						C87.2,239.3,87.2,237.2,86,236.7z"/>
					<path class="st2" d="M86.7,240H77c-0.8,0-1.4-0.6-1.4-1.4l0-1.8c0-0.2,0.1-0.4,0.2-0.5c0.1,0,1.3-1.2,2.9-1.6
						c1.6-0.5,6.5,1.1,7.4,1.5c0,0,0,0,0,0c1.2,0.5,1.6,2,1.4,2.9C87.5,239.7,87.1,240,86.7,240z M77,237.1l0,1.5l0,0h9.3
						c0-0.2,0-0.4-0.1-0.7c-0.1-0.2-0.2-0.5-0.5-0.6c-2.2-0.8-5.7-1.7-6.6-1.4C78.2,236.2,77.3,236.8,77,237.1z"/>
				</g>
				<g>
					<path class="st5" d="M93.7,165.3c0-1.1-0.3-7.6-0.5-10.9c0-1-0.1-1.9-0.3-2.7c-1.8-8.5-7.5-18.1-7.5-18.1h-18
						c0,0-5.7,9.6-7.5,18.1c-0.2,0.8-0.3,1.7-0.3,2.7c-0.2,3.3-0.5,9.8-0.5,10.9c-0.2,8.5-2.9,26.4-3.8,30.5
						c0.6,0.1,1.4,0.2,2.5,0.2c3.1,0,3.1-0.7,6.2-0.7c3.1,0,3.1,0.7,6.2,0.7c3.1,0,3.1-0.7,6.2-0.7h0c3.1,0,3.1,0.7,6.2,0.7
						c3.1,0,3.1-0.7,6.2-0.7c3.1,0,3.1,0.7,6.2,0.7c1.1,0,1.9-0.1,2.5-0.2C96.6,191.7,93.9,173.7,93.7,165.3z"/>
					<path class="st2" d="M95,196.7c-1.6,0-2.5-0.2-3.3-0.4c-0.8-0.2-1.5-0.3-3-0.3c-1.5,0-2.2,0.2-3,0.3c-0.8,0.2-1.6,0.4-3.3,0.4
						c-1.6,0-2.5-0.2-3.3-0.4c-0.8-0.2-1.5-0.3-3-0.3c-1.5,0-2.2,0.2-3,0.3c-0.8,0.2-1.6,0.4-3.3,0.4c-1.6,0-2.5-0.2-3.3-0.4
						c-0.8-0.2-1.5-0.3-3-0.3c-1.5,0-2.2,0.2-3,0.3c-0.8,0.2-1.6,0.4-3.3,0.4c-1.3,0-2-0.1-2.6-0.3c-0.2,0-0.3-0.1-0.4-0.3
						c-0.1-0.2-0.1-0.3-0.1-0.5c0.9-4.2,3.6-22.2,3.8-30.3c0-1.1,0.3-7.6,0.5-11c0-1.1,0.1-2,0.3-2.8c1.8-8.5,7.4-17.9,7.6-18.3
						c0.1-0.2,0.3-0.3,0.6-0.3h18c0.2,0,0.5,0.1,0.6,0.3c0.2,0.4,5.8,9.8,7.6,18.3c0.2,0.8,0.3,1.8,0.3,2.9
						c0.2,3.3,0.5,9.9,0.5,10.9l0,0c0.2,8.2,2.9,26.1,3.8,30.3c0,0.2,0,0.4-0.1,0.5c-0.1,0.2-0.3,0.3-0.4,0.3
						C97,196.5,96.2,196.7,95,196.7z M88.7,194.6c1.6,0,2.5,0.2,3.3,0.4c0.8,0.2,1.5,0.3,3,0.3c0.7,0,1.3,0,1.7-0.1
						c-1.1-5.3-3.5-21.9-3.7-29.9l0,0c0-1.1-0.3-7.6-0.5-10.9c0-1-0.1-1.9-0.3-2.6c-1.6-7.4-6.3-15.8-7.3-17.5H67.7
						c-1,1.8-5.7,10.2-7.3,17.5c-0.2,0.7-0.3,1.6-0.3,2.6c-0.2,3.4-0.5,9.8-0.5,10.9c-0.2,8-2.6,24.6-3.7,29.9
						c0.4,0.1,1,0.1,1.7,0.1c1.5,0,2.2-0.2,3-0.3c0.8-0.2,1.6-0.4,3.3-0.4c1.6,0,2.5,0.2,3.3,0.4c0.8,0.2,1.5,0.3,3,0.3
						c1.5,0,2.2-0.2,3-0.3c0.8-0.2,1.6-0.4,3.3-0.4c1.6,0,2.5,0.2,3.3,0.4c0.8,0.2,1.5,0.3,3,0.3c1.5,0,2.2-0.2,3-0.3
						C86.3,194.8,87.1,194.6,88.7,194.6z"/>
				</g>
				<g>
					<path class="st5" d="M94.6,111.2c-0.6-2.2-8-5.4-8-5.4L76.3,101l-10.3,4.8c0,0-7.4,3.2-8,5.4c-0.6,2.2,6.9,5.8,6.9,5.8v5.3h7.3
						l0,0h8.3l0,0h7.3v-5.3C87.7,117.1,95.2,113.4,94.6,111.2z"/>
					<path class="st2" d="M87.7,123H64.8c-0.4,0-0.7-0.3-0.7-0.7v-4.9c-2.2-1.1-7.5-4-6.8-6.4c0.6-2.4,7.1-5.3,8.4-5.9l10.3-4.8
						c0.2-0.1,0.4-0.1,0.6,0l10.3,4.8c1.3,0.6,7.7,3.5,8.4,5.9l0,0c0.6,2.4-4.6,5.3-6.8,6.4v4.9C88.4,122.7,88.1,123,87.7,123z
						 M65.5,121.7h21.6v-4.6c0-0.3,0.1-0.5,0.4-0.6c3.3-1.6,6.8-4.1,6.5-5c-0.4-1.3-4.7-3.7-7.6-5l-10.1-4.7l-10.1,4.7
						c-3,1.3-7.3,3.7-7.6,5c-0.3,1,3.2,3.4,6.5,5c0.2,0.1,0.4,0.3,0.4,0.6V121.7z"/>
				</g>
				<g>
					<polygon class="st3" points="72.9,103.5 73.8,98.7 78.7,98.7 79.6,103.5 					"/>
					<path class="st2" d="M79.6,104.2h-6.6c-0.2,0-0.4-0.1-0.5-0.2c-0.1-0.2-0.2-0.4-0.1-0.6l0.9-4.9c0.1-0.3,0.3-0.6,0.7-0.6h4.8
						c0.3,0,0.6,0.2,0.7,0.6l0.9,4.9c0,0.2,0,0.4-0.1,0.6C80,104.1,79.8,104.2,79.6,104.2z M73.8,102.9h5l-0.7-3.5h-3.7L73.8,102.9z
						"/>
				</g>
				<g>
					<polygon class="st3" points="73.2,102.4 69.3,104.2 76.3,110.4 83.3,104.2 79.4,102.4 					"/>
				</g>
				<g>
					<path class="st2" d="M76.3,111.1c-0.2,0-0.3-0.1-0.4-0.2l-7-6.2c-0.2-0.2-0.3-0.4-0.2-0.6c0-0.2,0.2-0.4,0.4-0.5l3.9-1.8
						c0.3-0.2,0.7,0,0.9,0.3c0.2,0.3,0,0.7-0.3,0.9l-2.9,1.4l5.8,5.1l5.8-5.1l-2.9-1.4c-0.3-0.2-0.5-0.6-0.3-0.9
						c0.2-0.3,0.6-0.5,0.9-0.3l3.9,1.8c0.2,0.1,0.3,0.3,0.4,0.5c0,0.2-0.1,0.5-0.2,0.6l-7,6.2C76.6,111,76.4,111.1,76.3,111.1z"/>
				</g>
				<g>
					<path class="st3" d="M44.2,118.7c-1.4-3.1-2.8-6-2.8-6l4.4-2.4l3.6,5.6L44.2,118.7z"/>
				</g>
				<g>
					<path class="st2" d="M44.2,119.4c-0.3,0-0.5-0.1-0.6-0.4c-1.4-3-2.7-6-2.8-6c-0.1-0.3,0-0.7,0.3-0.9l4.4-2.4
						c0.3-0.2,0.7-0.1,0.9,0.2l3.6,5.6c0.2,0.3,0.1,0.7-0.2,0.9c-0.3,0.2-0.7,0.1-0.9-0.2l-3.2-5.1l-3.3,1.8c0.5,1,1.5,3.2,2.5,5.4
						c0.2,0.3,0,0.7-0.3,0.9C44.4,119.4,44.3,119.4,44.2,119.4z"/>
				</g>
				<g>
					<path class="st5" d="M65,116.2c0,0-1,2.7-3.4,8.2c-1.3,3-5.1,8.9-7,8.9c-1.5,0-5.1-4-7.7-8.6c-1.4-2.4-5-9.1-5-9.1l6.5-3.5
						l5.7,10.1c2-5.4,3.6-10.7,4.1-11.4L65,116.2z"/>
				</g>
				<g>
					<path class="st2" d="M54.6,133.9C54.6,133.9,54.6,133.9,54.6,133.9c-2.1-0.1-5.8-4.6-8.3-8.9c-1.4-2.4-5-9.1-5.1-9.1
						c-0.1-0.2-0.1-0.3-0.1-0.5c0.1-0.2,0.2-0.3,0.3-0.4l6.5-3.5c0.3-0.2,0.7-0.1,0.9,0.3l4.9,8.9c0.8-2.1,1.4-4.1,2-5.8
						c0.9-2.6,1.3-3.9,1.6-4.4c0.2-0.3,0.6-0.4,0.9-0.2c0.3,0.2,0.4,0.6,0.2,0.9c-0.2,0.3-0.8,2.2-1.5,4c-0.7,2.1-1.6,4.6-2.5,7.2
						c-0.1,0.2-0.3,0.4-0.6,0.4c-0.3,0-0.5-0.1-0.6-0.3l-5.3-9.6l-5.4,2.9c0.9,1.7,3.6,6.6,4.7,8.5c2.9,5,6.2,8.2,7.1,8.2
						c0,0,0,0,0,0c1.1,0,4.5-4.4,6.3-8.5c2.4-5.4,3.4-8.2,3.4-8.2c0.1-0.4,0.5-0.5,0.9-0.4c0.4,0.1,0.5,0.5,0.4,0.9
						c0,0-1,2.8-3.4,8.3C61.3,126.7,57.3,133.9,54.6,133.9z"/>
				</g>
				<g>
					<g>
						<g>
							<path class="st3" d="M94.7,150.1l0.9,2.8c0,0-0.3,0.2-0.5,1.8c-0.2,1.6,1.7,5.1,1.9,5.8c0.2,0.7,0.7,0.9,1.2,0.5
								c0.4-0.3,0.6-0.9,0.5-1.3c-0.1-0.3-0.4-1.6-0.4-1.6s0.8,0.4,1.1,1.1c0.4,0.8,1.9,4,1.9,4.4c0,0.4,0.7,1.2,1.5,0.9
								c0.7-0.3,1.2-4,1.2-4s-0.3-2.4-0.8-4.2c-0.2-0.9-2.4-2.8-3.6-3.8l-0.8-3.4L94.7,150.1z"/>
						</g>
						<g>
							<path class="st2" d="M102.6,165.3c-0.4,0-0.8-0.1-1.1-0.4c-0.4-0.3-0.7-0.7-0.7-1.2c-0.1-0.4-0.7-1.9-1.3-3.1
								c-0.1,0.4-0.4,0.8-0.8,1.1c-0.4,0.3-0.8,0.4-1.2,0.2c-0.3-0.1-0.7-0.4-1-1.1c0-0.1-0.2-0.4-0.3-0.8c-0.8-1.9-1.7-4-1.6-5.4
								c0.1-1,0.3-1.5,0.4-1.9l-0.8-2.5c-0.1-0.4,0.1-0.7,0.4-0.9c0.4-0.1,0.7,0.1,0.9,0.4l0.9,2.8c0.1,0.2,0,0.5-0.1,0.7
								c0,0.1-0.2,0.4-0.3,1.5c-0.1,1.1,1,3.5,1.5,4.7c0.2,0.4,0.3,0.7,0.4,0.9c0,0.1,0.1,0.2,0.1,0.2c0,0,0,0,0.1,0
								c0.2-0.1,0.3-0.4,0.2-0.5c-0.1-0.3-0.3-1.4-0.4-1.8c0-0.3,0.1-0.5,0.3-0.7c0.2-0.2,0.5-0.2,0.7,0c0.1,0.1,1,0.6,1.4,1.4
								c0,0,1.9,3.8,1.9,4.7c0.1,0.1,0.3,0.3,0.5,0.3h0c0.3-0.4,0.6-1.9,0.8-3.4c-0.1-0.4-0.3-2.5-0.8-4c0,0,0,0,0-0.1
								c-0.1-0.7-2.2-2.4-3.1-3.2l-0.3-0.3c-0.1-0.1-0.2-0.2-0.2-0.4l-0.8-3.4c-0.1-0.4,0.1-0.7,0.5-0.8c0.4-0.1,0.7,0.1,0.8,0.5
								l0.7,3.2l0.1,0.1c1.8,1.5,3.3,2.9,3.5,3.9c0.6,1.8,0.9,4.2,0.9,4.3c0,0.1,0,0.1,0,0.2c-0.6,4.1-1.4,4.4-1.7,4.5
								C102.9,165.3,102.7,165.3,102.6,165.3z M102.1,163.7C102.1,163.7,102.1,163.7,102.1,163.7
								C102.1,163.7,102.1,163.7,102.1,163.7z M100.7,163.7L100.7,163.7L100.7,163.7z M96,153.4L96,153.4L96,153.4z M96,153.4
								C96,153.4,96,153.4,96,153.4C96,153.4,96,153.4,96,153.4z M96,153.4C96,153.4,96,153.4,96,153.4C96,153.4,96,153.4,96,153.4z
								 M96,153.4L96,153.4L96,153.4z M96.1,153.3L96.1,153.3L96.1,153.3z"/>
						</g>
					</g>
					<g>
						<path class="st3" d="M101.9,158.3c0,0,0.7,3.9,0.4,5.1c-0.3,1.2-0.9,1-1.1,0.9c-0.2-0.1-0.6-0.5-0.6-1.1c0-0.6-1-3.7-1.1-4.1
							c-0.2-0.4-1.1-0.9-1.1-0.9L101.9,158.3z"/>
					</g>
					<g>
						<path class="st2" d="M101.5,165c-0.2,0-0.4-0.1-0.5-0.1c-0.6-0.2-1.1-0.9-1.1-1.7c0-0.5-0.9-3.4-1.1-3.9
							c-0.1-0.1-0.4-0.3-0.7-0.5c-0.3-0.2-0.5-0.6-0.3-0.9c0.2-0.3,0.6-0.5,0.9-0.3c0.3,0.2,1.2,0.6,1.4,1.2
							c0.2,0.4,1.1,3.6,1.2,4.3c0,0.3,0.1,0.5,0.2,0.5c0,0,0,0,0.1,0c0,0,0.1-0.2,0.2-0.4c0.2-0.7-0.2-3.3-0.5-4.8
							c-0.1-0.4,0.2-0.7,0.5-0.8c0.4-0.1,0.7,0.2,0.8,0.5c0.1,0.7,0.7,4.1,0.4,5.3c-0.2,0.7-0.4,1.1-0.8,1.3
							C101.9,164.9,101.7,165,101.5,165z M101.5,163.6L101.5,163.6L101.5,163.6z"/>
					</g>
				</g>
				<g>
					<path class="st5" d="M94.6,111.2c0,0,0.8,17.8,1.6,23c1.1,6.5,4,17.2,4,17.2l-5.8,1c0,0-4.3-14.4-4.8-18
						c-0.4-3.1-2.8-18.6-2.8-18.6L94.6,111.2z"/>
				</g>
				<g>
					<path class="st2" d="M94.4,153.1c-0.3,0-0.6-0.2-0.6-0.5c-0.2-0.6-4.3-14.5-4.8-18.1c-0.4-3-2.8-18.4-2.8-18.6
						c-0.1-0.4,0.2-0.7,0.6-0.8c0.4-0.1,0.7,0.2,0.8,0.6c0,0.2,2.4,15.6,2.8,18.6c0.4,3.1,3.8,14.6,4.6,17.3l4.5-0.7
						c-0.7-2.5-2.9-11-3.8-16.5c-0.8-5.2-1.6-22.4-1.6-23.1c0-0.4,0.3-0.7,0.6-0.7c0.4,0,0.7,0.3,0.7,0.6c0,0.2,0.8,17.8,1.6,22.9
						c1,6.4,3.9,17,3.9,17.1c0,0.2,0,0.4-0.1,0.5c-0.1,0.2-0.3,0.3-0.5,0.3l-5.8,1C94.5,153.1,94.4,153.1,94.4,153.1z"/>
				</g>
				<g>
					<path class="st5" d="M64.1,113.1c0,0-0.9,5.1-0.8,7.3c0.1,2.3,1.7,5.4,1.7,5.4s2,4.4,1.7,6.3c-0.5,2.8-4.3,10.2-5.4,13.8
						c-0.2,0.5-0.3,1-0.4,1.5c-0.9,3-1.2,4.2-1.2,4.2h33.1c0,0-0.3-1.2-1.2-4.2c-0.1-0.4-0.3-0.9-0.4-1.4
						c-1.1-3.6-4.9-11.1-5.4-13.8c-0.3-1.9,1.7-6.3,1.7-6.3s1.6-3,1.7-5.4c0.1-2.1-0.8-7.3-0.8-7.3H64.1z"/>
				</g>
				<g>
					<path class="st2" d="M92.8,152.3H59.7c-0.2,0-0.4-0.1-0.5-0.3c-0.1-0.2-0.2-0.4-0.1-0.6c0,0,0.3-1.2,1.2-4.3
						c0.1-0.4,0.3-0.9,0.4-1.5c0.5-1.6,1.5-3.9,2.5-6.3c1.3-2.9,2.6-5.9,2.8-7.4c0.2-1.4-1.1-4.7-1.7-5.9c-0.2-0.3-1.7-3.3-1.8-5.6
						c-0.1-2.2,0.8-7.2,0.8-7.4c0.1-0.4,0.4-0.6,0.8-0.5c0.4,0.1,0.6,0.4,0.5,0.8c0,0.1-0.9,5.1-0.8,7.1c0.1,2.2,1.7,5.1,1.7,5.1
						c0,0,0,0,0,0c0.2,0.5,2.1,4.7,1.8,6.7c-0.3,1.6-1.6,4.6-2.9,7.7c-1,2.3-2,4.6-2.5,6.2c-0.2,0.5-0.3,1-0.4,1.4
						c-0.5,1.6-0.8,2.7-1,3.4h31.3c-0.2-0.7-0.5-1.7-1-3.4c-0.1-0.4-0.3-0.9-0.4-1.4c-0.5-1.5-1.5-3.9-2.5-6.2
						c-1.4-3.1-2.6-6.1-2.9-7.7c-0.3-2,1.6-6.2,1.8-6.7c0,0,0,0,0,0c0,0,1.6-2.9,1.7-5.1c0.1-2-0.8-7.1-0.8-7.1
						c-0.1-0.4,0.2-0.7,0.5-0.8c0.4-0.1,0.7,0.2,0.8,0.5c0,0.2,0.9,5.2,0.8,7.4c-0.1,2.4-1.7,5.3-1.8,5.6c-0.5,1.2-1.9,4.5-1.7,5.9
						c0.2,1.5,1.5,4.5,2.8,7.4c1,2.4,2,4.7,2.5,6.3c0.2,0.5,0.3,1,0.4,1.5c0.9,3,1.2,4.2,1.2,4.3c0,0.2,0,0.4-0.1,0.6
						C93.2,152.2,93,152.3,92.8,152.3z"/>
				</g>
				<g>
					<path class="st6" d="M70.7,106.3l5.6,19.4l5.6-19.4c0,0-2.4,2-5.6,2C73.1,108.3,70.7,106.3,70.7,106.3z"/>
					<path class="st2" d="M76.3,126.4c-0.3,0-0.6-0.2-0.6-0.5l-5.6-19.4c-0.1-0.3,0-0.6,0.3-0.8c0.3-0.2,0.6-0.1,0.8,0.1l0,0
						c0,0,2.2,1.9,5.1,1.9s5.1-1.8,5.1-1.9c0.2-0.2,0.6-0.2,0.8-0.1c0.3,0.2,0.4,0.5,0.3,0.8l-5.6,19.4
						C76.8,126.2,76.6,126.4,76.3,126.4z M71.9,107.8l4.4,15.4l4.4-15.4c-1.1,0.6-2.6,1.2-4.4,1.2C74.5,109,72.9,108.4,71.9,107.8z
						 M70.7,106.3L70.7,106.3L70.7,106.3z"/>
				</g>
				<g>
					<g>
						<circle class="st5" cx="76.4" cy="130.8" r="1.3"/>
						<path class="st2" d="M76.4,132.7c-1.1,0-1.9-0.9-1.9-1.9c0-1.1,0.9-1.9,1.9-1.9c1.1,0,1.9,0.9,1.9,1.9
							C78.3,131.8,77.4,132.7,76.4,132.7z M76.4,130.2c-0.3,0-0.6,0.3-0.6,0.6c0,0.3,0.3,0.6,0.6,0.6c0.3,0,0.6-0.3,0.6-0.6
							C77,130.5,76.7,130.2,76.4,130.2z"/>
					</g>
				</g>
				<g>
					<circle class="st6" cx="70.1" cy="105.3" r="1.7"/>
					<path class="st2" d="M70.1,107.6c-1.3,0-2.3-1-2.3-2.3c0-1.3,1-2.3,2.3-2.3c1.3,0,2.3,1,2.3,2.3
						C72.5,106.6,71.4,107.6,70.1,107.6z M70.1,104.3c-0.5,0-1,0.4-1,1c0,0.5,0.4,1,1,1s1-0.4,1-1C71.1,104.7,70.7,104.3,70.1,104.3
						z"/>
				</g>
				<g>
					<circle class="st6" cx="82.4" cy="105.3" r="1.7"/>
					<path class="st2" d="M82.4,107.6c-1.3,0-2.3-1-2.3-2.3c0-1.3,1-2.3,2.3-2.3s2.3,1,2.3,2.3C84.7,106.6,83.7,107.6,82.4,107.6z
						 M82.4,104.3c-0.5,0-1,0.4-1,1c0,0.5,0.4,1,1,1s1-0.4,1-1C83.4,104.7,82.9,104.3,82.4,104.3z"/>
				</g>
				<g>
					<circle class="st6" cx="72.5" cy="108" r="1.9"/>
					<path class="st2" d="M72.5,110.6c-1.4,0-2.5-1.1-2.5-2.5c0-1.4,1.1-2.5,2.5-2.5c1.4,0,2.5,1.1,2.5,2.5
						C75,109.4,73.8,110.6,72.5,110.6z M72.5,106.8c-0.7,0-1.2,0.5-1.2,1.2c0,0.7,0.5,1.2,1.2,1.2c0.7,0,1.2-0.5,1.2-1.2
						C73.6,107.4,73.1,106.8,72.5,106.8z"/>
				</g>
				<g>
					<circle class="st6" cx="80.1" cy="108" r="1.9"/>
					<path class="st2" d="M80.1,110.6c-1.4,0-2.5-1.1-2.5-2.5c0-1.4,1.1-2.5,2.5-2.5c1.4,0,2.5,1.1,2.5,2.5
						C82.6,109.4,81.5,110.6,80.1,110.6z M80.1,106.8c-0.7,0-1.2,0.5-1.2,1.2c0,0.7,0.5,1.2,1.2,1.2s1.2-0.5,1.2-1.2
						C81.3,107.4,80.8,106.8,80.1,106.8z"/>
				</g>
				<g>
					<circle class="st6" cx="76.3" cy="109.2" r="1.9"/>
					<path class="st2" d="M76.3,111.7c-1.4,0-2.5-1.1-2.5-2.5c0-1.4,1.1-2.5,2.5-2.5c1.4,0,2.5,1.1,2.5,2.5
						C78.8,110.6,77.7,111.7,76.3,111.7z M76.3,108c-0.7,0-1.2,0.5-1.2,1.2c0,0.7,0.5,1.2,1.2,1.2s1.2-0.5,1.2-1.2
						C77.5,108.6,76.9,108,76.3,108z"/>
				</g>
				<g>
					<g>
						<g>
							<ellipse class="st7" cx="83" cy="112.3" rx="2.9" ry="2.3"/>
							<path class="st2" d="M83,115.3c-1.9,0-3.5-1.3-3.5-3c0-1.6,1.6-3,3.5-3s3.5,1.3,3.5,3C86.5,114,84.9,115.3,83,115.3z
								 M83,110.7c-1.2,0-2.2,0.7-2.2,1.6c0,0.9,1,1.6,2.2,1.6s2.2-0.7,2.2-1.6C85.2,111.5,84.2,110.7,83,110.7z"/>
						</g>
						<g>
							<ellipse class="st7" cx="83" cy="117.9" rx="2.9" ry="2.3"/>
							<path class="st2" d="M83,120.8c-1.9,0-3.5-1.3-3.5-3c0-1.6,1.6-3,3.5-3s3.5,1.3,3.5,3C86.5,119.5,84.9,120.8,83,120.8z
								 M83,116.3c-1.2,0-2.2,0.7-2.2,1.6c0,0.9,1,1.6,2.2,1.6s2.2-0.7,2.2-1.6C85.2,117,84.2,116.3,83,116.3z"/>
						</g>
					</g>
					<g>
						<g>
							<ellipse class="st7" cx="85.8" cy="115.1" rx="2.3" ry="2.9"/>
							<path class="st2" d="M85.8,118.6c-1.6,0-3-1.6-3-3.5c0-1.9,1.3-3.5,3-3.5s3,1.6,3,3.5C88.7,117,87.4,118.6,85.8,118.6z
								 M85.8,112.9c-0.9,0-1.6,1-1.6,2.2c0,1.2,0.7,2.2,1.6,2.2c0.9,0,1.6-1,1.6-2.2C87.4,113.9,86.6,112.9,85.8,112.9z"/>
						</g>
						<g>
							<ellipse class="st7" cx="80.2" cy="115.1" rx="2.3" ry="2.9"/>
							<path class="st2" d="M80.2,118.6c-1.6,0-3-1.6-3-3.5c0-1.9,1.3-3.5,3-3.5c1.6,0,3,1.6,3,3.5C83.2,117,81.8,118.6,80.2,118.6z
								 M80.2,112.9c-0.9,0-1.6,1-1.6,2.2c0,1.2,0.7,2.2,1.6,2.2c0.9,0,1.6-1,1.6-2.2C81.8,113.9,81.1,112.9,80.2,112.9z"/>
						</g>
					</g>
					<g>
						<ellipse class="st7" cx="83" cy="115" rx="1.8" ry="1.8"/>
						<path class="st2" d="M83,117.4c-1.4,0-2.5-1.1-2.5-2.4c0-1.3,1.1-2.4,2.5-2.4c1.4,0,2.5,1.1,2.5,2.4
							C85.5,116.3,84.4,117.4,83,117.4z M83,113.9c-0.6,0-1.1,0.5-1.1,1.1s0.5,1.1,1.1,1.1s1.1-0.5,1.1-1.1S83.6,113.9,83,113.9z"/>
					</g>
				</g>
				<g>
					
						<ellipse transform="matrix(8.715486e-02 -0.9962 0.9962 8.715486e-02 -23.9316 119.5822)" class="st3" cx="53.3" cy="72.8" rx="6.7" ry="5.2"/>
					<path class="st2" d="M53.1,80.2c-0.1,0-0.3,0-0.4,0c-1.6-0.1-3-1.1-4-2.6c-1-1.5-1.4-3.4-1.2-5.3c0.2-1.9,0.9-3.7,2.1-5
						c1.2-1.3,2.8-2,4.4-1.8c1.6,0.1,3,1.1,4,2.6c1,1.5,1.4,3.4,1.2,5.3c-0.2,1.9-0.9,3.7-2.1,5C55.9,79.6,54.5,80.2,53.1,80.2z
						 M53.5,66.8c-1.1,0-2.1,0.5-3,1.4c-1,1.1-1.6,2.6-1.8,4.2c-0.1,1.6,0.2,3.2,1,4.4c0.8,1.2,1.8,1.9,3,2c1.2,0.1,2.4-0.4,3.3-1.4
						c1-1.1,1.6-2.6,1.8-4.2c0.1-1.6-0.2-3.2-1-4.4c-0.8-1.2-1.8-1.9-3-2C53.7,66.8,53.6,66.8,53.5,66.8z"/>
				</g>
				<g>
					
						<ellipse transform="matrix(8.715486e-02 -0.9962 0.9962 8.715486e-02 17.7383 173.8873)" class="st3" cx="103.8" cy="77.3" rx="6.7" ry="5.2"/>
					<path class="st2" d="M103.5,84.6c-0.1,0-0.3,0-0.4,0c-3.2-0.3-5.6-3.8-5.2-7.9c0.2-1.9,0.9-3.7,2.1-5c1.2-1.3,2.8-2,4.4-1.8
						c1.6,0.1,3,1.1,4,2.6c1,1.5,1.4,3.4,1.2,5.3C109.3,81.7,106.6,84.6,103.5,84.6z M104,71.2c-1.1,0-2.1,0.5-3,1.4
						c-1,1.1-1.6,2.6-1.8,4.2c-0.3,3.3,1.5,6.2,4,6.4c2.5,0.2,4.8-2.3,5.1-5.6c0.1-1.6-0.2-3.2-1-4.4c-0.8-1.2-1.8-1.9-3-2
						C104.2,71.2,104.1,71.2,104,71.2z"/>
				</g>
				<g>
					
						<ellipse transform="matrix(8.715495e-02 -0.9962 0.9962 8.715495e-02 10.9781 181.426)" class="st6" cx="104.5" cy="84.7" rx="1.7" ry="1.7"/>
					<path class="st2" d="M104.5,87.1c-0.1,0-0.1,0-0.2,0c-0.6-0.1-1.2-0.4-1.6-0.9s-0.6-1.1-0.6-1.8c0.1-1.3,1.3-2.3,2.6-2.2
						c1.3,0.1,2.3,1.3,2.2,2.6c-0.1,0.6-0.4,1.2-0.9,1.6C105.6,86.9,105.1,87.1,104.5,87.1z M104.5,83.7c-0.5,0-1,0.4-1.1,1l0,0
						c0,0.3,0.1,0.6,0.2,0.8c0.2,0.2,0.4,0.4,0.7,0.4c0.3,0,0.6-0.1,0.8-0.2c0.2-0.2,0.4-0.4,0.4-0.7
						C105.6,84.2,105.2,83.7,104.5,83.7C104.5,83.7,104.5,83.7,104.5,83.7z M102.7,84.6L102.7,84.6L102.7,84.6z"/>
				</g>
				<g>
					
						<ellipse transform="matrix(8.715495e-02 -0.9962 0.9962 8.715495e-02 -32.9631 124.1609)" class="st6" cx="51.3" cy="80.1" rx="1.7" ry="1.7"/>
					<path class="st2" d="M51.3,82.5c-0.1,0-0.1,0-0.2,0c-1.3-0.1-2.3-1.3-2.2-2.6c0.1-0.6,0.4-1.2,0.9-1.6c0.5-0.4,1.1-0.6,1.8-0.6
						c0.6,0.1,1.2,0.4,1.6,0.9c0.4,0.5,0.6,1.1,0.6,1.8l0,0C53.6,81.5,52.5,82.5,51.3,82.5z M51.3,79c-0.3,0-0.5,0.1-0.7,0.2
						c-0.2,0.2-0.4,0.4-0.4,0.7c-0.1,0.6,0.4,1.1,1,1.2c0.6,0,1.1-0.4,1.2-1v0c0-0.3-0.1-0.6-0.2-0.8C51.9,79.2,51.6,79,51.3,79
						C51.3,79,51.3,79,51.3,79z"/>
				</g>
				<g>
					<path class="st3" d="M76.3,100.7c-11.9-1-22.4-12.9-23.8-22.2c-0.5-3.7-0.6-7.9-0.3-12c0.3-3.7,4.9-15.4,9.3-19.6
						c5-4.8,12.6-6.2,20-5.6c7.4,0.6,14.6,3.4,18.7,9c3.6,4.9,6.1,17.2,5.8,20.9c-0.4,4-1.2,8.2-2.4,11.7
						C100.6,91.9,88.2,101.7,76.3,100.7L76.3,100.7z"/>
				</g>
				<g>
					<path class="st2" d="M78,101.4c-0.6,0-1.2,0-1.8-0.1c0,0,0,0,0,0c-5.7-0.5-11.5-3.4-16.3-8.2c-4.4-4.4-7.4-9.8-8.1-14.6
						c-0.5-3.7-0.7-8-0.3-12.1c0.3-3.9,5-15.7,9.5-20c4.7-4.5,12-6.5,20.5-5.8c8.5,0.7,15.3,4,19.2,9.2c3.7,5.1,6.3,17.4,5.9,21.4
						c-0.4,4.1-1.2,8.3-2.4,11.9c-1.5,4.6-5.5,9.4-10.5,13C88.7,99.6,83.2,101.4,78,101.4z M76.3,100C76.3,100,76.3,100,76.3,100
						c11.4,1,23.7-8.5,26.6-17.3c1.2-3.5,2-7.6,2.3-11.6c0.3-3.7-2.2-15.7-5.7-20.5c-3.6-4.9-10.1-8-18.2-8.7
						c-8.1-0.7-15,1.2-19.4,5.4c-4.3,4.1-8.8,15.5-9.1,19.2c-0.4,4-0.3,8.2,0.3,11.8C54.5,87.6,64.9,99,76.3,100z"/>
				</g>
				<g>
					<path class="st2" d="M105.7,66.4c0,0-4.8-2.9-17.5-6.8c-8.2-2.5-19.4-9.9-19.8-17.8c0,0,4.6-5.7,13.5-4.4
						c9,1.3,17,4.9,19.9,8.4C104.7,49.3,108.4,65.9,105.7,66.4z"/>
				</g>
				<g>
					<path class="st2" d="M105.7,67.1c-0.1,0-0.2,0-0.4-0.1c0,0-4.9-2.9-17.3-6.7c-8-2.4-19.9-9.9-20.3-18.4c0-0.4,0.3-0.7,0.6-0.7
						c0.4,0,0.7,0.3,0.7,0.6c0.3,7.5,11.4,14.8,19.3,17.2c12.7,3.8,17.5,6.7,17.7,6.8c0.3,0.2,0.4,0.6,0.2,0.9
						C106.2,67,106,67.1,105.7,67.1z"/>
				</g>
				<g>
					<path class="st2" d="M78.3,93.2c-0.4,0-0.9,0-1.3-0.1c-5.7-0.5-7-3.6-7.1-3.7c-0.1-0.3,0-0.7,0.4-0.9c0.3-0.1,0.7,0,0.9,0.4
						c0,0.1,1.1,2.5,5.9,2.9c4.8,0.4,6.3-1.8,6.3-1.8c0.2-0.3,0.6-0.4,0.9-0.2c0.3,0.2,0.4,0.6,0.2,0.9
						C84.5,90.8,82.9,93.2,78.3,93.2z"/>
				</g>
				<g>
					<path class="st2" d="M63,63.2c-0.1,0-0.3,0-0.4-0.1c-0.3-0.2-0.3-0.7-0.1-0.9c1.4-1.8,3.9-2.9,6.1-2.7c1.4,0.1,2.6,0.7,3.2,1.8
						c0.2,0.3,0.1,0.7-0.3,0.9c-0.3,0.2-0.7,0.1-0.9-0.3c-0.5-0.9-1.5-1.1-2.1-1.1c-1.5-0.1-3.6,0.5-5,2.2
						C63.4,63.1,63.2,63.2,63,63.2z"/>
				</g>
				<g>
					<path class="st2" d="M95.9,66.1c-0.2,0-0.5-0.1-0.6-0.4c-1-1.9-3-2.9-4.5-3.1c-0.6-0.1-1.6,0-2.3,0.7c-0.2,0.3-0.7,0.3-1,0.1
						c-0.3-0.2-0.3-0.7-0.1-1c0.8-0.9,2-1.4,3.4-1.2c2.2,0.2,4.5,1.7,5.6,3.8c0.2,0.3,0.1,0.7-0.3,0.9C96.1,66.1,96,66.1,95.9,66.1z
						"/>
				</g>
				<g>
					<path class="st2" d="M77.6,85.7C77.6,85.7,77.6,85.7,77.6,85.7c-0.4,0-0.7-0.4-0.7-0.7l0.1-1.7c0-0.4,0.4-0.7,0.7-0.6
						c0.4,0,0.6,0.4,0.6,0.7l-0.1,1.7C78.3,85.4,78,85.7,77.6,85.7z"/>
				</g>
				<g>
					<path class="st2" d="M70.3,74.2C70.3,74.2,70.2,74.2,70.3,74.2c-0.4,0-0.7-0.3-0.7-0.7c0.1-1.8-0.7-3.2-1.9-3.4
						c-1.2-0.2-2.7,0.7-3.5,3.1c-0.1,0.4-0.5,0.6-0.8,0.5c-0.4-0.1-0.6-0.5-0.5-0.8c1-3.2,3.2-4.4,5-4.1c1.6,0.3,3.2,1.9,3,4.8
						C70.9,74,70.6,74.2,70.3,74.2z"/>
				</g>
				<g>
					<path class="st2" d="M93.6,76.4c-0.3,0-0.6-0.3-0.7-0.6c-0.3-2.5-1.7-3.7-2.9-3.7h0c-1.3,0-2.3,1.2-2.5,3
						c0,0.4-0.4,0.6-0.8,0.6c-0.4,0-0.6-0.4-0.6-0.7c0.3-2.9,2.2-4.2,3.8-4.2c0,0,0,0,0,0c1.8,0,3.8,1.5,4.2,4.9
						C94.3,76,94.1,76.3,93.6,76.4C93.7,76.4,93.6,76.4,93.6,76.4z"/>
				</g>
				<g>
					<g>
						<path class="st3" d="M46.8,111.4c0,0,0.5-3.9,0.8-5.9c0.3-1.8-0.5-4.6-1.6-7.4c-0.7-1.6-0.2-2.2-1-3.9
							c-0.4-0.8-1.6-2.5-3.1-1.9c-1.2,0.5-0.8,2.8-0.8,2.8l-0.9,2.1c0,0-4.6-3.3-6-1c-1.4,2.3-2,3.7-1.8,6.9
							c0.3,3.2,1.3,4.8,1.6,5.3c0.6,0.9,7,4.7,8,5.5L46.8,111.4z"/>
					</g>
					<g>
						<path class="st2" d="M42.1,114.6c-0.1,0-0.3,0-0.4-0.1c-0.3-0.2-1.1-0.7-2-1.3c-3.8-2.4-5.8-3.7-6.2-4.4
							c-0.5-0.8-1.5-2.5-1.7-5.7c-0.3-3.2,0.3-4.8,1.9-7.3c0.3-0.6,0.9-0.9,1.6-1.1c1.6-0.3,3.7,0.7,4.7,1.4l0.5-1.2
							c-0.1-0.7-0.1-2.7,1.3-3.3c1.7-0.7,3.2,0.7,3.9,2.2c0.5,1,0.6,1.7,0.7,2.3c0.1,0.5,0.1,1,0.4,1.6c1.4,3.4,1.9,6,1.6,7.7
							c-0.3,2-0.8,5.8-0.8,5.9c0,0.4-0.4,0.6-0.8,0.6c-0.4,0-0.6-0.4-0.6-0.8c0-0.2,0.5-3.9,0.8-6c0.3-1.5-0.3-3.9-1.6-7
							c-0.3-0.8-0.4-1.4-0.5-2c-0.1-0.6-0.1-1.1-0.5-1.9c-0.1-0.2-1.1-2.1-2.2-1.6c-0.5,0.2-0.5,1.4-0.4,2c0,0.1,0,0.2,0,0.3
							l-0.9,2.1c-0.1,0.2-0.2,0.3-0.4,0.4c-0.2,0.1-0.4,0-0.6-0.1c-0.8-0.5-3.1-1.9-4.4-1.6c-0.3,0.1-0.5,0.2-0.7,0.5
							c-1.4,2.2-1.9,3.5-1.7,6.5c0.2,2.8,1,4.3,1.5,5c0.4,0.5,4.1,2.9,5.8,4c1,0.6,1.7,1.1,2.1,1.3c0.3,0.2,0.4,0.6,0.2,0.9
							C42.5,114.5,42.3,114.6,42.1,114.6z"/>
					</g>
					<g>
						<g>
							<path class="st8" d="M45.6,96.6c0,0-1.8-1.8-3.5-1.1c-1.8,0.7-3.1,2.1-1.9,9.6c0.7,5,7.4,3.6,7.4,3.6l-0.4-2.6
								c0,0-3.6,0.7-4.1-1.3c-0.6-2.6-0.8-6.5-0.2-6.5c0.7,0,2.9,1,2.9,1L45.6,96.6z"/>
							<path class="st2" d="M45.6,109.6c-1.3,0-2.9-0.2-4.2-1.1c-1.1-0.8-1.7-1.9-1.9-3.3c-1.1-7.5,0-9.5,2.4-10.3
								c2.1-0.8,4.2,1.2,4.3,1.2c0.1,0.1,0.2,0.3,0.2,0.4l0.2,2.7c0,0.2-0.1,0.5-0.3,0.6c-0.2,0.1-0.4,0.2-0.7,0.1
								c-0.8-0.4-1.8-0.7-2.4-0.9c-0.2,0.9,0,3.5,0.5,5.6c0.3,1.3,3.3,0.9,3.4,0.9c0.2,0,0.4,0,0.5,0.1c0.1,0.1,0.2,0.3,0.3,0.4
								l0.4,2.6c0.1,0.4-0.2,0.7-0.5,0.8C47.6,109.5,46.8,109.6,45.6,109.6z M42.9,96.1c-0.2,0-0.4,0-0.6,0.1
								c-1.1,0.4-2.7,1-1.5,8.9c0.2,1.1,0.6,1.8,1.4,2.4c1.4,1,3.5,0.9,4.6,0.8l-0.2-1.3c-1.6,0.1-3.8-0.1-4.2-1.9c-0.5-2-1-6-0.2-7
								c0.2-0.2,0.4-0.4,0.7-0.4c0.5,0,1.4,0.3,2.2,0.6L45,97C44.6,96.7,43.8,96.1,42.9,96.1z"/>
						</g>
						<g>
							<path class="st9" d="M64.7,92.5c0-2.5-4.7-4.5-10.6-4.5c-5.8,0-10.6,2-10.6,4.5c0,0.2,0,0.3,0.1,0.5l2.8,19.4
								c0.4,1.4,3.5,2.2,7.8,2.2c4.3,0,7.4-0.9,7.8-2.2L64.6,93C64.6,92.8,64.7,92.6,64.7,92.5z"/>
							<path class="st2" d="M54.1,115.2c-2.9,0-7.8-0.3-8.4-2.7c0,0,0-0.1,0-0.1l-2.8-19.4c-0.1-0.2-0.1-0.4-0.1-0.7
								c0-2.9,4.8-5.1,11.3-5.1s11.3,2.2,11.3,5.1c0,0.2,0,0.4-0.1,0.7l-2.8,19.4c0,0,0,0.1,0,0.1C61.9,114.6,57.7,115.2,54.1,115.2
								z M47,112.3c0.2,0.7,2.3,1.6,7.1,1.6c4.4,0,6.8-1,7.1-1.7l2.7-19.4c0,0,0-0.1,0-0.1c0-0.1,0-0.2,0-0.3c0-1.8-4.1-3.8-9.9-3.8
								s-9.9,2-9.9,3.8c0,0.1,0,0.2,0,0.3c0,0,0,0.1,0,0.1L47,112.3z M61.8,112.4L61.8,112.4L61.8,112.4z"/>
						</g>
						<g>
							<path class="st10" d="M54.1,91.4c-3.3,0-6.2,0.6-8,1.5c0.9,1,4.1,1.8,8,1.8c3.9,0,7.1-0.8,8-1.8C60.3,92,57.4,91.4,54.1,91.4
								z"/>
							<path class="st2" d="M54.1,95.3c-3.1,0-7.2-0.5-8.5-2c-0.1-0.2-0.2-0.4-0.2-0.6c0-0.2,0.2-0.4,0.4-0.5c2-1,5-1.6,8.3-1.6
								c3.3,0,6.3,0.6,8.3,1.6c0.2,0.1,0.3,0.3,0.4,0.5c0,0.2,0,0.4-0.2,0.6C61.3,94.8,57.2,95.3,54.1,95.3z M47.5,93
								c1.3,0.5,3.7,1,6.6,1c2.9,0,5.3-0.4,6.6-1c-1.8-0.6-4.1-1-6.6-1C51.6,92.1,49.2,92.4,47.5,93z"/>
						</g>
					</g>
					<g>
						<path class="st3" d="M34.2,96.2c0.5-1.1,2.2-3.9,4.3-3.9c1.7,0.1,4.9,2.1,5.8,3.3c1.2,1.7-1.3,2.2-1.3,2.2l-3.3-0.1l-1.4,0.7
							L34.2,96.2z"/>
					</g>
					<g>
						<path class="st2" d="M38.4,99c-0.2,0-0.5-0.1-0.6-0.4c-0.2-0.3,0-0.7,0.3-0.9l1.4-0.7c0.1-0.1,0.2-0.1,0.3-0.1l3.2,0.1
							c0.4-0.1,0.9-0.3,1-0.6c0.1-0.2-0.1-0.4-0.2-0.5c-0.8-1.1-3.9-3-5.3-3c0,0,0,0-0.1,0c-1.8,0-3.2,2.7-3.7,3.5
							c-0.2,0.3-0.6,0.5-0.9,0.3c-0.3-0.2-0.5-0.6-0.3-0.9c0.7-1.3,2.5-4.3,5-4.2c2,0.1,5.4,2.3,6.3,3.6c0.6,0.8,0.5,1.4,0.4,1.8
							c-0.4,1.1-1.9,1.4-2.1,1.4c-0.1,0-0.1,0-0.2,0L40,98.3L38.7,99C38.6,99,38.5,99,38.4,99z"/>
					</g>
					<g>
						<path class="st3" d="M35,98.4c0,0,1.6-2.6,4.4-2.5c1.7,0.1,3.9,2.1,3.8,3.6c-0.1,1.3-1,2.5-1,2.5l-2.8-1.6l-1.4,0.7L35,98.4z"
							/>
					</g>
					<g>
						<path class="st2" d="M42.1,102.8c-0.1,0-0.2,0-0.3-0.1l-2.5-1.4l-1.1,0.6c-0.3,0.2-0.7,0-0.9-0.3c-0.2-0.3,0-0.7,0.3-0.9
							l1.4-0.7c0.2-0.1,0.4-0.1,0.6,0l2.2,1.2c0.2-0.4,0.5-1.1,0.6-1.7c0-0.4-0.2-1-0.7-1.5c-0.7-0.8-1.7-1.4-2.4-1.4
							c-2.4-0.1-3.8,2.1-3.8,2.2c-0.2,0.3-0.6,0.4-0.9,0.2c-0.3-0.2-0.4-0.6-0.2-0.9c0.1-0.1,1.8-2.9,5-2.8c1.1,0,2.4,0.8,3.4,1.8
							c0.7,0.8,1.1,1.7,1.1,2.5c-0.1,1.5-1.1,2.8-1.2,2.9C42.5,102.7,42.3,102.8,42.1,102.8z"/>
					</g>
					<g>
						<path class="st3" d="M35.7,102c0,0,1.7-2.3,3.7-2.2c2,0,3.8,1.8,3.7,2.8c-0.1,1-0.4,2.8-1.4,2.9c-0.5,0.1-1-0.3-1.7-0.7
							L35.7,102z"/>
					</g>
					<g>
						<path class="st2" d="M41.5,106.2c-0.6,0-1.1-0.3-1.6-0.6l-0.2-0.1c-0.3-0.2-0.4-0.6-0.2-0.9c0.2-0.3,0.6-0.4,0.9-0.2l0.2,0.1
							c0.5,0.3,0.7,0.5,1,0.4c0.2,0,0.6-0.5,0.8-2.3c0-0.1-0.1-0.4-0.4-0.8c-0.5-0.6-1.5-1.2-2.6-1.2c-1.3,0-2.7,1.4-3.2,2
							c-0.2,0.3-0.6,0.4-0.9,0.1c-0.3-0.2-0.4-0.6-0.1-0.9c0.1-0.1,1.9-2.5,4.2-2.5c0,0,0,0,0,0c1.5,0,2.8,0.9,3.6,1.7
							c0.6,0.6,0.8,1.3,0.8,1.9c-0.2,2.2-0.9,3.4-2,3.5C41.6,106.2,41.5,106.2,41.5,106.2z"/>
					</g>
					<g>
						<path class="st3" d="M36.4,105.3c0,0,2.1-2,3.3-1.8c1,0.1,2.5,1.6,2.5,2.5c0.1,0.8-1,3-1.8,2.6c-0.8-0.4-1.4-0.9-1.4-0.9
							l0.3-0.8L36.4,105.3z"/>
					</g>
					<g>
						<path class="st2" d="M40.6,109.4c-0.2,0-0.4-0.1-0.5-0.1c-0.9-0.4-1.5-1-1.6-1.1c-0.2-0.2-0.3-0.5-0.2-0.7l0.3-0.8
							c0.1-0.3,0.5-0.5,0.9-0.4c0.3,0.1,0.5,0.5,0.4,0.9l-0.1,0.3c0.2,0.2,0.5,0.3,0.8,0.5c0.4-0.2,1-1.5,1-1.9
							c0-0.6-1.2-1.8-1.9-1.9c-0.6-0.1-2,0.9-2.8,1.6c-0.3,0.3-0.7,0.2-1,0c-0.3-0.3-0.2-0.7,0-1c0.4-0.4,2.4-2.2,3.9-2
							c1.3,0.2,3,1.9,3.1,3.1c0.1,0.9-0.7,2.6-1.6,3.2C41.1,109.3,40.9,109.4,40.6,109.4z"/>
					</g>
				</g>
			</g>
			<g>
				<g>
					<path class="st11" d="M37.5,82.1c-0.4,0-0.8-0.2-1-0.6c0,0,0,0,0-0.1c-0.2-0.5,0-1.1,0.5-1.4c0.5-0.2,1.1,0,1.4,0.5
						c0,0.1,0.1,0.2,0.1,0.2c0.2,0.5,0,1.1-0.6,1.4C37.7,82.1,37.6,82.1,37.5,82.1z"/>
				</g>
				<g>
					<path class="st11" d="M34.9,78.1c-0.3,0-0.6-0.1-0.8-0.4c-0.1-0.1-0.1-0.1-0.2-0.2c-0.4-0.4-0.3-1.1,0.1-1.5
						c0.4-0.4,1.1-0.3,1.5,0.1c0.1,0.1,0.1,0.2,0.2,0.2c0.4,0.4,0.3,1.1-0.1,1.5C35.4,78.1,35.1,78.1,34.9,78.1z M31.4,74.8
						c-0.2,0-0.4-0.1-0.6-0.2c-0.1-0.1-0.2-0.1-0.2-0.2c-0.5-0.3-0.6-1-0.2-1.5c0.3-0.5,1-0.6,1.5-0.2c0.1,0.1,0.2,0.1,0.3,0.2
						c0.5,0.4,0.5,1,0.2,1.5C32,74.6,31.7,74.8,31.4,74.8z M27.2,72.2c-0.2,0-0.3,0-0.5-0.1c-0.1-0.1-0.2-0.1-0.3-0.2
						C26,71.7,25.8,71,26,70.5c0.3-0.5,0.9-0.7,1.4-0.4c0.1,0,0.2,0.1,0.3,0.1c0.5,0.3,0.7,0.9,0.4,1.4C28,72,27.6,72.2,27.2,72.2z
						 M23.2,69.5c-0.2,0-0.5-0.1-0.7-0.3c-0.1-0.1-0.2-0.1-0.2-0.2c-0.4-0.4-0.5-1.1-0.1-1.5c0.4-0.4,1.1-0.5,1.5-0.1
						c0.1,0.1,0.1,0.1,0.2,0.2c0.4,0.4,0.5,1,0.1,1.5C23.8,69.3,23.5,69.5,23.2,69.5z M20,65.8c-0.3,0-0.6-0.2-0.9-0.4
						c-0.1-0.1-0.1-0.2-0.2-0.3c-0.3-0.5-0.2-1.1,0.3-1.5c0.5-0.3,1.1-0.2,1.5,0.3c0.1,0.1,0.1,0.2,0.2,0.2c0.3,0.5,0.2,1.1-0.2,1.5
						C20.4,65.8,20.2,65.8,20,65.8z M17.6,61.6c-0.4,0-0.8-0.3-1-0.7c0-0.1-0.1-0.2-0.1-0.3c-0.2-0.5,0.1-1.1,0.6-1.3
						c0.5-0.2,1.1,0.1,1.3,0.6c0,0.1,0.1,0.2,0.1,0.3c0.2,0.5-0.1,1.1-0.6,1.4C17.9,61.5,17.8,61.6,17.6,61.6z M33.3,59.9
						c-0.4,0-0.8-0.2-0.9-0.6c-0.3-0.5-0.1-1.1,0.5-1.4c0.1,0,0.1-0.1,0.2-0.1c0.5-0.3,1.1-0.1,1.4,0.3c0.3,0.5,0.1,1.1-0.3,1.4
						c-0.1,0.1-0.2,0.1-0.3,0.2C33.7,59.9,33.5,59.9,33.3,59.9z M16.7,56.8c-0.6,0-1-0.5-1-1l0-0.2l0-0.1c0-0.6,0.5-1,1-1
						c0,0,0,0,0,0c0.6,0,1,0.5,1,1.1l0,0.1l0,0.2C17.7,56.3,17.3,56.8,16.7,56.8C16.7,56.8,16.7,56.8,16.7,56.8z M35.9,56
						c0,0-0.1,0-0.1,0c-0.6-0.1-1-0.6-0.9-1.2c0-0.1,0-0.2,0-0.3c0.1-0.6,0.6-1,1.1-1c0.6,0.1,1,0.6,1,1.1c0,0.1,0,0.2,0,0.4
						C36.9,55.6,36.4,56,35.9,56z M17.7,52.1c-0.2,0-0.3,0-0.5-0.1c-0.5-0.3-0.7-0.9-0.5-1.4c0.1-0.1,0.1-0.2,0.2-0.3
						c0.3-0.5,0.9-0.7,1.4-0.4c0.5,0.3,0.7,0.9,0.4,1.4c0,0.1-0.1,0.2-0.1,0.2C18.5,51.9,18.1,52.1,17.7,52.1z M34.7,51.3
						c-0.3,0-0.6-0.1-0.8-0.4c0-0.1-0.1-0.1-0.2-0.2c-0.4-0.4-0.3-1.1,0.1-1.5c0.4-0.4,1.1-0.3,1.5,0.1c0.1,0.1,0.2,0.2,0.2,0.3
						c0.3,0.5,0.2,1.1-0.2,1.5C35.1,51.3,34.9,51.3,34.7,51.3z M21,48.6c-0.4,0-0.7-0.2-0.9-0.5c-0.3-0.5-0.1-1.1,0.4-1.4
						c0.1-0.1,0.2-0.1,0.3-0.2c0.5-0.3,1.1-0.1,1.4,0.5c0.3,0.5,0.1,1.1-0.5,1.4c-0.1,0-0.2,0.1-0.2,0.1
						C21.4,48.6,21.2,48.6,21,48.6z M30.8,48.6c-0.1,0-0.3,0-0.4-0.1c-0.1,0-0.2-0.1-0.3-0.1c-0.5-0.2-0.8-0.8-0.6-1.4
						c0.2-0.5,0.8-0.8,1.4-0.6c0.1,0,0.2,0.1,0.3,0.1c0.5,0.2,0.8,0.8,0.6,1.4C31.6,48.3,31.2,48.6,30.8,48.6z M26,47.5
						C26,47.5,26,47.5,26,47.5c-0.1,0-0.2,0-0.3,0c-0.6,0-1-0.5-1-1.1c0-0.6,0.5-1,1-1c0,0,0,0,0,0c0.1,0,0.2,0,0.3,0
						c0.6,0,1,0.5,1,1.1C27.1,47,26.6,47.5,26,47.5z"/>
				</g>
				<g>
					<path class="st11" d="M29,59.4c-0.2,0-0.4-0.1-0.6-0.2c0,0-0.1-0.1-0.1-0.1c-0.5-0.3-0.6-1-0.3-1.5c0.3-0.5,1-0.6,1.5-0.3
						l0.1,0.1c0.5,0.3,0.6,1,0.3,1.5C29.7,59.2,29.3,59.4,29,59.4z"/>
				</g>
			</g>
		</g>
	</g>
</g>
</svg>
